<?xml version="1.0" standalone="no"?>
<!DOCTYPE svg PUBLIC "-//W3C//DTD SVG 20010904//EN"
 "http://www.w3.org/TR/2001/REC-SVG-20010904/DTD/svg10.dtd">
<svg version="1.0" xmlns="http://www.w3.org/2000/svg"
 width="1064.000000pt" height="1189.000000pt" viewBox="0 0 1064.000000 1189.000000"
 preserveAspectRatio="xMidYMid meet">

<g transform="translate(0.000000,1189.000000) scale(0.100000,-0.100000)"
fill="#000000" stroke="none">
<path d="M3893 11849 c-68 -58 -126 -132 -164 -206 l-32 -63 -63 60 c-42 41
-70 60 -87 60 -31 0 -154 -95 -221 -172 -27 -30 -86 -114 -133 -187 -72 -114
-81 -133 -61 -128 13 3 40 9 60 12 35 7 43 16 116 129 43 66 99 154 123 194
46 78 89 122 119 122 11 0 50 -35 92 -82 40 -45 134 -143 209 -218 75 -74 156
-162 180 -194 79 -107 148 -143 419 -223 19 -6 -32 -25 -325 -124 -157 -52
-285 -102 -370 -145 -157 -77 -186 -81 -277 -36 -145 72 -348 225 -398 300
-30 46 -39 86 -20 97 23 14 9 27 -22 21 -38 -8 -58 -23 -58 -46 0 -38 237
-234 469 -388 116 -77 146 -101 143 -117 -6 -42 -43 -155 -50 -155 -4 0 -50
34 -102 76 -143 115 -349 269 -495 370 -167 115 -198 134 -224 134 -39 0 -21
-26 34 -49 90 -37 329 -207 603 -430 79 -64 151 -121 159 -128 13 -10 10 -22
-20 -90 -19 -43 -49 -125 -67 -183 -62 -206 -75 -243 -92 -253 -12 -8 -83 12
-305 86 -374 125 -411 132 -683 131 -189 -1 -402 -14 -481 -30 -24 -5 -30 1
-59 50 -17 31 -34 56 -36 56 -16 0 -210 -53 -269 -74 -231 -80 -430 -168 -643
-285 -71 -39 -137 -71 -146 -71 -21 0 -20 30 1 77 27 58 190 293 236 341 47
48 279 208 431 297 117 68 386 199 507 246 74 29 120 61 107 75 -2 2 -39 0
-82 -5 -82 -9 -204 -61 -325 -137 -59 -37 -277 -164 -371 -216 -170 -94 -330
-216 -330 -252 0 -4 -35 -60 -77 -126 -43 -65 -97 -153 -120 -196 l-42 -76 29
-57 c53 -104 33 -104 225 -7 94 47 208 106 255 131 47 25 74 37 61 25 -13 -11
-98 -59 -190 -106 -396 -206 -449 -240 -806 -519 -108 -84 -185 -137 -185
-127 0 6 41 68 91 138 50 71 119 171 152 224 33 52 80 122 104 155 24 33 118
166 209 295 185 263 239 324 370 415 204 143 553 357 774 473 306 162 726 313
1169 422 163 40 218 59 131 45 -278 -43 -889 -236 -1215 -385 -173 -79 -472
-256 -790 -465 -201 -133 -258 -189 -400 -390 -54 -77 -150 -211 -213 -299
-63 -87 -149 -213 -191 -280 -42 -66 -104 -159 -139 -206 -71 -96 -95 -142
-86 -164 16 -41 77 -7 439 249 72 50 143 100 159 110 l28 19 -30 -60 c-28 -56
-64 -166 -75 -228 -6 -38 8 -76 28 -76 9 0 69 55 133 121 170 177 583 494 732
563 198 91 495 179 710 212 162 25 408 25 520 0 337 -73 733 -233 1052 -423
150 -89 143 -66 69 -238 -27 -60 -51 -118 -54 -128 -17 -48 -37 -287 -38 -444
-1 -203 15 -306 75 -490 50 -150 186 -415 254 -495 149 -174 147 -301 -10
-464 l-72 -74 -40 38 c-23 21 -61 55 -86 74 l-45 35 -130 -8 c-79 -5 -160 -16
-205 -29 -101 -28 -240 -97 -240 -119 1 -9 11 -45 23 -80 19 -55 27 -66 52
-74 17 -5 36 -15 44 -21 18 -14 61 -110 61 -137 0 -17 4 -20 23 -15 27 7 157
-4 157 -14 0 -4 -17 -7 -37 -6 -38 1 -38 1 -41 -41 -3 -46 11 -83 32 -83 26 0
70 -83 179 -337 l31 -72 -42 -88 c-30 -65 -46 -88 -59 -87 -52 3 -280 39 -289
46 -22 16 -21 58 7 325 35 327 35 319 9 319 -29 0 -50 -53 -49 -123 0 -32 -10
-119 -24 -193 -14 -74 -28 -178 -32 -230 -4 -52 -11 -103 -16 -112 -13 -25
-85 -25 -93 0 -15 47 -146 578 -161 655 -10 48 -20 85 -23 82 -6 -5 -7 -22
-20 -211 -7 -106 -11 -126 -37 -170 -40 -68 -123 -147 -189 -178 -34 -16 -117
-38 -218 -57 -90 -17 -197 -41 -238 -55 -89 -28 -131 -30 -171 -7 -27 16 -31
16 -84 -6 -31 -13 -58 -21 -61 -18 -3 3 31 36 75 73 45 38 81 74 81 80 0 5
-13 23 -30 39 -23 22 -27 31 -18 42 6 7 8 17 3 21 -10 10 -107 -96 -176 -193
-32 -44 -64 -88 -71 -98 -9 -11 -18 -14 -27 -8 -11 7 -10 13 4 35 15 22 16 31
6 52 -6 14 -11 37 -11 51 0 18 -16 42 -51 77 l-51 50 -19 -24 c-10 -14 -33
-61 -50 -105 -23 -60 -49 -101 -107 -170 -78 -93 -187 -253 -178 -262 2 -3 22
9 43 26 46 36 97 55 206 76 45 8 96 20 114 26 60 19 258 -61 258 -106 0 -14
-16 -24 -65 -40 -81 -27 -154 -62 -295 -138 -104 -57 -276 -162 -313 -192 -9
-7 -57 -43 -105 -79 -75 -56 -92 -64 -108 -55 -32 17 -52 2 -83 -63 -38 -81
-57 -145 -50 -173 5 -20 10 -22 57 -18 46 4 56 10 89 46 21 23 38 45 38 48 0
4 -14 9 -32 13 -49 10 -82 34 -68 51 13 16 41 12 72 -9 33 -24 45 -20 100 29
27 24 77 65 111 89 34 25 82 61 107 81 102 83 395 242 550 299 41 15 102 40
135 55 131 60 412 140 437 125 6 -4 9 -1 6 7 -5 15 -21 16 -83 5 -34 -6 -42
-4 -52 13 -12 18 -9 22 33 41 26 11 52 20 59 20 7 0 19 9 26 20 24 33 175 70
321 78 142 8 149 7 141 -14 -4 -11 7 -14 58 -14 40 -1 71 -6 83 -15 13 -10 44
-15 90 -15 135 0 396 -38 396 -58 0 -4 -19 -37 -43 -73 -23 -37 -54 -86 -68
-110 -25 -43 -27 -44 -120 -67 -52 -12 -149 -39 -216 -60 l-123 -37 0 -42 c0
-48 46 -163 65 -163 8 0 34 9 59 20 50 21 80 17 71 -9 -3 -10 3 -20 17 -26 13
-6 29 -28 38 -55 9 -25 48 -111 86 -192 l69 -147 52 29 c67 36 70 24 4 -15
l-49 -30 13 -32 c13 -31 10 -40 -62 -208 l-76 -175 -41 0 -41 0 -21 73 c-70
244 -140 464 -172 546 -20 51 -41 106 -47 122 -5 16 -13 29 -17 29 -15 0 -303
-131 -498 -227 -107 -53 -206 -101 -220 -107 -35 -15 -58 -46 -107 -140 -23
-45 -42 -75 -42 -68 -1 6 -23 28 -49 47 -27 19 -57 50 -67 68 -16 30 -16 40
-5 86 11 49 11 55 -7 73 -17 16 -22 17 -34 6 -8 -8 -54 -49 -104 -93 -385
-338 -390 -344 -399 -470 -2 -33 -7 -71 -11 -85 -3 -14 -12 -86 -19 -160 l-14
-135 -1 86 c0 48 6 124 15 169 8 45 13 89 10 97 -8 21 -59 -42 -170 -212 -188
-285 -276 -447 -289 -528 -5 -35 -4 -38 31 -56 65 -32 91 -35 101 -9 25 69 24
76 -19 83 -22 4 -40 11 -40 16 0 11 6 11 53 -2 38 -10 38 -10 110 57 66 61
268 204 289 204 4 0 8 7 8 16 0 13 7 15 41 9 23 -4 57 -14 75 -21 50 -21 96
-17 135 11 19 13 45 30 59 37 31 16 46 34 64 74 11 26 36 42 148 96 75 36 138
71 142 76 9 15 166 64 294 93 56 13 102 26 102 30 0 4 -11 16 -25 27 l-25 20
23 6 c12 3 84 13 160 23 142 17 168 14 175 -19 2 -12 -12 -17 -65 -22 -103
-10 -193 -27 -193 -36 0 -5 8 -6 18 -4 13 3 168 22 287 35 32 3 366 -9 371
-13 3 -3 -9 -34 -26 -68 -17 -34 -29 -64 -27 -66 2 -2 41 3 86 11 46 9 90 15
99 13 9 -2 -28 -23 -83 -47 -55 -24 -151 -68 -213 -97 -62 -30 -117 -54 -122
-54 -17 0 -50 -39 -50 -60 0 -11 33 -69 73 -128 89 -130 97 -147 63 -138 -13
3 -31 9 -40 12 -11 4 -19 -2 -25 -17 -4 -13 -12 -23 -17 -21 -5 2 -29 -63 -54
-145 -42 -134 -72 -203 -89 -203 -17 1 -33 23 -80 117 -28 57 -48 109 -45 118
7 16 -6 20 -21 6 -6 -5 -41 -25 -80 -46 -148 -78 -325 -180 -325 -189 0 -5 29
-69 65 -144 36 -74 65 -136 65 -138 0 -2 -27 -4 -60 -4 -33 0 -60 -4 -60 -10
0 -20 -35 -9 -104 34 -39 24 -84 50 -99 58 l-28 14 41 47 c41 46 69 118 70
177 0 18 3 21 9 12 6 -10 10 -8 14 10 9 31 9 83 0 75 -4 -4 -19 5 -34 19 l-27
26 -79 -60 c-131 -100 -226 -211 -258 -302 -12 -35 -12 -38 8 -47 l21 -10 -22
-5 c-12 -4 -22 -2 -22 3 0 24 -19 4 -45 -46 -15 -31 -37 -63 -49 -73 -12 -9
-43 -53 -71 -97 -27 -44 -118 -183 -202 -309 -84 -126 -156 -241 -159 -255 -3
-14 -10 -38 -14 -53 -7 -23 -5 -31 17 -48 14 -11 31 -20 39 -20 22 0 44 12 44
24 0 6 7 24 15 39 14 27 13 28 -12 38 -14 5 -24 12 -21 14 3 3 16 1 29 -3 18
-7 31 -4 52 12 32 24 205 171 255 217 18 17 51 38 72 48 43 19 43 31 -2 31
-15 0 -28 5 -28 11 0 8 14 10 45 6 39 -6 52 -2 112 32 226 126 494 245 679
300 212 63 361 94 451 95 50 1 94 -2 98 -5 3 -4 -10 -49 -29 -100 -56 -154
-58 -143 16 -109 72 34 199 55 267 45 59 -9 108 -34 150 -78 46 -48 53 -129
21 -243 -31 -113 -128 -426 -227 -733 -52 -163 -82 -273 -79 -287 7 -27 370
-382 551 -539 517 -448 1120 -776 1800 -980 263 -79 674 -157 913 -174 84 -6
268 -11 410 -11 751 0 1419 143 2074 445 89 41 168 75 175 75 29 0 292 147
336 188 29 27 35 63 15 79 -7 6 -80 34 -163 63 -203 71 -397 147 -419 163 -17
12 -10 17 75 52 52 20 159 54 238 74 152 39 181 56 150 87 -9 9 -100 49 -202
89 -101 41 -256 107 -343 148 -88 41 -303 142 -480 225 -176 83 -338 158 -359
166 -23 10 -35 20 -29 25 18 18 214 80 348 110 194 44 229 68 174 118 -13 11
-183 120 -378 243 -195 123 -386 246 -425 274 -143 102 -348 279 -334 289 2 2
51 0 109 -4 173 -11 538 -10 545 2 20 31 -8 62 -123 136 -279 181 -512 384
-632 551 -84 116 -236 430 -217 448 4 4 82 -16 174 -44 270 -83 494 -123 514
-91 5 8 9 17 9 21 0 4 -80 87 -179 185 -111 111 -197 206 -228 253 -132 198
-214 424 -249 680 -13 102 -19 220 -10 220 3 0 69 -36 148 -80 151 -84 229
-110 333 -109 160 0 199 49 106 127 -87 73 -194 271 -235 433 -27 104 -56 322
-56 414 l0 59 48 -46 c59 -58 146 -111 226 -138 33 -11 155 -40 270 -65 266
-58 339 -76 511 -132 117 -37 190 -52 440 -90 347 -53 525 -61 645 -29 163 43
350 168 483 321 75 87 117 166 149 282 42 152 21 494 -38 618 -20 42 -70 87
-93 83 -13 -3 -17 -23 -23 -102 -4 -55 -11 -103 -16 -108 -4 -4 -38 62 -76
151 -55 130 -74 166 -107 195 -42 39 -60 44 -78 22 -8 -10 -9 -26 -2 -57 14
-60 14 -169 -1 -248 l-12 -66 -9 60 c-5 36 -16 68 -27 79 -18 18 -20 18 -45 2
-14 -9 -45 -42 -68 -72 l-42 -54 -6 78 c-7 92 -14 111 -46 123 -47 18 -70 2
-116 -82 l-43 -78 0 130 c1 101 -2 132 -13 138 -36 23 -82 -21 -142 -139 l-48
-95 -1 140 c0 77 -3 150 -6 162 -8 29 -32 37 -60 19 -28 -19 -102 -114 -141
-184 -22 -38 -33 -50 -39 -41 -4 8 -8 70 -9 139 -1 69 -4 131 -9 138 -14 23
-53 12 -97 -27 l-44 -39 -10 102 c-9 94 -11 101 -33 104 -31 5 -69 -22 -95
-66 l-22 -37 -6 145 c-3 85 -11 154 -18 168 -21 39 -50 24 -95 -50 -68 -112
-196 -255 -172 -193 3 9 13 55 22 103 9 48 23 111 32 139 17 59 11 139 -12
162 -27 26 -59 3 -129 -92 -76 -103 -126 -165 -127 -156 0 4 28 44 63 90 34
47 75 113 91 148 34 76 48 188 25 202 -23 14 -32 11 -97 -36 -88 -64 -232
-145 -259 -145 -33 0 -89 54 -109 106 -13 35 -16 64 -11 137 6 110 12 126 83
238 30 48 65 116 78 152 l23 66 23 -55 c12 -30 30 -87 41 -127 26 -103 60
-122 122 -67 37 32 85 123 113 213 10 31 21 57 24 57 4 0 13 -28 20 -61 17
-78 46 -115 84 -105 56 14 169 144 219 252 l22 49 3 -43 c2 -24 -2 -66 -7 -93
-16 -74 -14 -138 4 -145 32 -13 87 9 168 67 85 60 151 133 197 217 30 54 39
41 47 -70 4 -63 0 -110 -17 -196 -12 -62 -19 -120 -16 -128 8 -20 72 -18 121
5 58 26 188 133 236 193 23 29 58 89 79 134 35 75 59 102 81 89 5 -3 27 -63
50 -133 51 -157 59 -253 35 -422 -9 -63 -16 -143 -16 -177 0 -59 2 -63 23 -63
12 0 45 19 74 43 97 79 200 227 265 380 16 39 32 74 33 75 2 2 1 -30 -2 -72
-7 -85 -1 -93 61 -82 37 7 238 156 281 209 l27 32 -7 -30 c-4 -16 -23 -70 -42
-120 -66 -167 -44 -215 59 -131 65 53 136 144 173 221 14 31 43 83 65 116 90
139 144 568 96 759 -41 167 -61 193 -339 459 -78 74 -126 131 -171 200 -109
168 -148 200 -298 241 -95 26 -207 37 -513 49 -399 17 -525 38 -935 156 -140
40 -280 78 -310 84 -30 7 -190 57 -355 112 -192 64 -345 108 -425 123 -125 24
-183 41 -264 76 -63 27 -294 157 -346 195 -79 58 -427 225 -499 241 -139 29
-342 13 -443 -36 -23 -11 -48 -20 -55 -20 -29 0 -387 104 -593 172 -246 81
-365 130 -571 234 -187 94 -296 172 -433 307 -60 59 -113 107 -117 107 -4 0
-29 -19 -56 -41z m182 -102 c72 -73 143 -134 204 -175 126 -84 422 -230 606
-298 227 -84 244 -91 475 -185 203 -82 257 -111 192 -101 -37 5 -61 -18 -55
-52 7 -33 -28 -81 -77 -106 -49 -25 -70 -25 -70 -1 0 16 8 20 38 23 l37 3 -31
22 c-29 21 -85 31 -312 59 -35 4 -41 8 -32 19 16 19 62 29 70 15 7 -11 159
-34 167 -26 5 5 -105 74 -205 130 -110 62 -196 101 -443 201 -207 84 -338 145
-413 193 -81 52 -205 152 -252 205 -27 30 -64 62 -81 73 -18 10 -33 21 -33 24
0 11 83 90 94 90 6 0 61 -51 121 -113z m2045 -637 c79 -9 100 -17 280 -107
107 -54 228 -121 270 -149 88 -60 310 -181 394 -215 l59 -24 -104 -13 c-57 -7
-147 -22 -199 -33 -162 -35 -177 -35 -271 1 -46 18 -155 56 -242 86 -87 29
-220 82 -295 118 -191 90 -259 107 -387 96 -55 -5 -101 -7 -103 -6 -6 7 94
117 141 155 102 85 254 115 457 91z m-1466 -227 c135 -45 397 -168 403 -188 2
-5 -14 -20 -35 -32 -103 -60 -336 -298 -409 -419 -27 -44 -141 -280 -179 -371
-10 -23 -33 -42 -86 -72 -40 -22 -111 -72 -158 -112 -47 -39 -104 -81 -128
-91 -23 -11 -57 -32 -75 -47 -74 -64 -72 -63 -141 -24 -33 19 -144 75 -245
125 l-184 91 6 78 c9 108 28 174 88 309 58 130 121 314 141 408 l12 63 121 60
c139 69 656 267 700 268 17 1 92 -20 169 -46z m1142 -44 c38 -12 113 -43 167
-70 123 -62 204 -95 446 -179 170 -59 192 -69 174 -79 -12 -6 -29 -11 -37 -11
-9 0 -16 -5 -16 -11 0 -16 80 -3 256 42 234 60 391 72 545 43 46 -8 226 -62
399 -119 173 -57 365 -116 425 -130 61 -15 184 -49 274 -76 223 -67 415 -106
533 -108 27 -1 27 -2 22 -48 -4 -27 -10 -65 -14 -85 -6 -27 -4 -41 6 -48 10
-9 14 -3 21 27 4 21 7 62 8 90 0 29 2 53 5 53 367 -12 571 -22 630 -30 85 -12
190 -39 190 -49 0 -11 -130 -51 -294 -91 l-149 -36 120 -92 c66 -50 178 -142
250 -204 249 -217 308 -258 393 -266 54 -5 64 5 76 75 6 37 3 41 -38 78 -75
67 -137 154 -198 275 -56 111 -98 226 -87 237 3 2 14 0 25 -6 13 -7 22 -26 26
-53 4 -24 13 -56 21 -73 13 -29 13 -29 14 -5 0 14 -6 42 -13 63 -8 20 -10 37
-5 37 11 0 68 -73 132 -170 36 -56 97 -126 178 -205 184 -180 208 -205 247
-264 37 -54 37 -55 37 -160 -1 -91 -5 -115 -27 -169 -30 -72 -17 -77 27 -11
17 24 35 44 40 44 10 0 9 -103 -1 -156 l-5 -27 -105 -1 c-81 0 -111 3 -130 16
-53 35 -292 -5 -429 -71 -97 -47 -146 -62 -280 -86 -123 -21 -182 -17 -229 15
-11 8 -28 15 -37 15 -9 0 -49 23 -89 51 -40 29 -105 67 -144 85 l-71 32 -260
3 c-230 2 -265 0 -300 -15 -22 -10 -62 -26 -90 -36 -129 -45 -205 -82 -205
-99 0 -13 -27 -29 -97 -59 -156 -66 -213 -83 -299 -89 -68 -5 -83 -3 -95 11
-32 38 -84 78 -134 104 -23 11 -63 41 -90 67 -28 25 -59 51 -70 56 -11 5 -35
21 -54 34 -67 49 -85 36 -172 -113 -30 -54 -62 -98 -71 -100 -21 -4 -73 124
-161 404 -9 27 -19 58 -23 67 -4 12 -1 17 10 17 9 0 24 4 34 10 9 5 78 28 152
51 74 22 146 45 158 50 21 8 32 2 87 -50 35 -32 79 -71 99 -86 32 -25 39 -26
65 -15 19 7 28 17 24 26 -7 20 92 19 177 -2 89 -21 116 -20 199 10 87 31 114
32 190 6 54 -18 62 -18 88 -5 15 8 42 15 59 15 33 0 44 13 44 54 0 13 9 31 20
41 20 18 20 17 20 -26 0 -24 -5 -71 -10 -104 -6 -39 -6 -63 0 -69 7 -7 10 -4
10 6 0 19 22 28 67 26 64 -2 126 24 175 74 27 26 48 56 48 67 0 10 14 31 31
45 31 26 49 33 49 18 0 -11 91 -165 95 -160 2 1 -12 48 -31 103 -31 91 -34
108 -30 185 2 47 8 99 12 115 6 27 6 29 -9 17 -9 -8 -24 -33 -33 -58 -11 -30
-23 -44 -35 -44 -11 0 -19 -7 -19 -15 0 -8 -6 -15 -13 -15 -7 0 -23 31 -36 73
-13 39 -38 103 -56 140 -27 57 -34 66 -44 53 -18 -22 -38 -11 -121 68 -149
142 -410 343 -498 383 -44 21 -57 23 -85 14 -28 -10 -54 -6 -158 18 -180 43
-348 74 -375 68 -13 -2 -21 -1 -18 4 2 4 -4 8 -13 8 -10 0 -85 5 -168 12 -82
6 -199 12 -260 13 -107 1 -113 0 -200 -37 -49 -21 -151 -60 -225 -86 -74 -27
-181 -67 -238 -90 -56 -22 -105 -41 -107 -41 -3 0 -5 6 -5 14 0 8 21 28 48 45
82 52 105 83 110 147 l5 57 -29 -18 c-18 -11 -40 -41 -58 -79 -16 -33 -46 -84
-66 -112 -21 -27 -39 -58 -41 -67 -3 -13 -39 -30 -124 -58 -66 -22 -168 -63
-227 -91 l-107 -51 -62 59 c-43 42 -68 58 -84 56 -23 -2 -41 21 -29 39 3 5 -1
9 -9 9 -8 0 -32 -21 -52 -46 -39 -47 -66 -78 -113 -127 -15 -15 -64 -47 -110
-69 l-83 -42 -23 29 c-20 25 -31 29 -102 36 -43 4 -124 22 -179 39 -75 25
-122 33 -190 36 -49 2 -93 3 -98 4 -8 0 37 85 151 285 41 72 76 138 78 149 5
27 29 61 71 99 273 248 256 236 439 315 192 82 227 94 374 127 132 29 134 29
216 4z m1562 -594 c-2 -1 -14 -8 -28 -14 -22 -11 -23 -10 -8 2 10 8 15 17 11
21 -4 4 1 4 10 0 10 -3 17 -8 15 -9z m-633 -265 c-21 -10 -443 -110 -463 -110
-7 0 -12 4 -12 9 0 12 124 47 269 75 68 14 126 27 129 30 3 4 26 6 51 5 36 0
42 -2 26 -9z m186 -209 c546 -141 609 -159 609 -175 0 -22 -64 -95 -114 -131
-54 -39 -147 -72 -220 -79 -91 -8 -207 36 -308 118 -64 52 -134 173 -144 250
l-7 46 36 0 c19 0 86 -13 148 -29z m-1576 -34 c10 -57 53 -194 76 -239 10 -20
27 -39 36 -42 10 -4 44 -54 76 -112 l59 -106 -27 -38 c-53 -76 -75 -147 -75
-245 0 -119 23 -169 92 -203 62 -31 91 -22 177 55 79 71 111 133 111 216 0 51
-4 62 -29 88 -37 36 -69 37 -121 3 -66 -44 -98 -144 -70 -219 12 -31 53 -49
81 -35 27 15 24 38 -6 46 -43 11 -52 90 -14 130 25 27 64 32 73 9 11 -30 -4
-168 -21 -187 -30 -33 -103 -17 -140 32 -21 27 -25 79 -9 133 29 99 102 166
202 187 49 10 53 13 44 31 -13 23 -45 24 -96 3 -180 -75 -234 -225 -150 -410
l25 -54 -30 0 c-42 0 -74 36 -88 99 -15 70 -14 97 5 161 23 77 128 181 239
235 44 22 81 40 82 40 1 0 -9 38 -23 85 -32 110 -31 117 12 135 20 8 38 15 40
15 2 0 4 -22 4 -49 0 -27 9 -77 20 -112 20 -65 76 -166 87 -155 3 3 -2 17 -11
30 -32 50 -11 83 30 45 13 -12 24 -17 24 -11 0 20 141 120 161 115 11 -3 19
-8 18 -12 0 -8 -133 -110 -154 -117 -14 -6 -12 -11 12 -36 35 -37 22 -48 -58
-48 l-56 0 -6 -72 c-8 -87 -28 -170 -58 -233 -29 -62 -132 -166 -196 -199 -86
-43 -182 -33 -244 26 -25 23 -26 30 -32 169 -7 164 -19 247 -48 333 -45 133
-169 307 -269 378 -71 50 -70 51 45 97 44 17 100 44 125 60 25 15 50 26 57 24
6 -3 15 -23 18 -46z m-500 -158 c39 -13 100 -42 136 -64 58 -34 77 -54 155
-164 103 -144 127 -192 159 -316 34 -133 39 -220 21 -370 -33 -285 -132 -504
-295 -658 -172 -162 -399 -237 -582 -192 -41 10 -83 18 -93 17 -35 -2 -144 62
-237 140 -110 92 -232 286 -269 428 -60 225 -46 480 34 655 67 146 225 337
347 417 31 21 59 44 62 52 8 21 57 44 140 67 107 28 323 22 422 -12z m-577 1
c-1 -5 -45 -46 -97 -92 -52 -46 -126 -120 -165 -165 -119 -136 -107 -91 13 53
93 111 267 254 249 204z m1711 -125 c24 -19 52 -35 61 -35 9 0 32 -5 50 -11
38 -14 28 -23 -38 -34 -61 -10 -100 9 -123 59 -29 66 -14 72 50 21z m926 -70
c115 -51 200 -68 310 -62 92 5 271 44 317 68 23 12 23 -3 0 -24 -27 -24 -87
-47 -125 -47 -19 0 -86 -9 -148 -20 -136 -24 -222 -26 -238 -6 -7 8 -26 17
-44 20 -47 9 -131 58 -135 79 -4 22 -5 22 63 -8z m-560 -20 l30 -13 -27 -1
c-23 -1 -28 -6 -28 -26 0 -21 5 -25 28 -25 75 0 191 -59 372 -189 l94 -68 -3
-139 c-2 -113 -7 -148 -23 -186 -11 -27 -24 -48 -29 -48 -11 0 -72 77 -104
134 -21 36 -39 53 -72 67 -58 25 -201 66 -259 75 l-46 7 4 126 c4 104 9 133
27 169 12 23 19 42 16 42 -2 0 -11 -13 -20 -30 -9 -16 -23 -30 -32 -30 -13 0
-15 8 -9 53 3 28 6 62 6 75 0 26 28 29 75 7z m-180 -441 c30 -31 -3 -57 -38
-30 -10 8 -15 20 -11 30 8 20 28 21 49 0z m2716 -111 c74 -29 72 -110 -6 -225
-110 -164 -131 -188 -200 -233 -93 -60 -90 -63 -87 78 2 101 -1 134 -17 180
-21 61 -18 92 14 141 50 76 185 104 296 59z m346 -4 c51 -25 117 -97 133 -145
10 -29 8 -41 -14 -86 -13 -29 -27 -72 -31 -95 -13 -84 -117 -191 -256 -263
-42 -22 -82 -40 -88 -40 -7 0 -6 13 4 38 44 112 58 282 30 362 -30 86 -12 180
42 216 59 38 119 43 180 13z m1354 -18 l23 -18 -22 -112 c-22 -112 -44 -169
-87 -226 -12 -16 -36 -57 -53 -90 -39 -78 -113 -176 -161 -215 -22 -16 -42
-30 -45 -30 -10 0 24 49 66 99 38 44 88 137 88 165 0 10 -9 14 -27 13 l-28 -2
0 90 c1 158 13 242 42 276 54 64 156 89 204 50z m-325 -36 c26 -11 40 -26 55
-61 28 -63 20 -113 -35 -200 -23 -38 -57 -96 -75 -130 -19 -37 -44 -67 -64
-79 -17 -10 -50 -36 -73 -57 -45 -41 -114 -76 -114 -57 0 6 12 69 27 139 26
128 26 129 9 202 -19 81 -14 113 27 157 28 30 154 93 200 100 4 0 23 -6 43
-14z m-1785 -15 c58 -16 65 -31 50 -103 -19 -92 -64 -177 -126 -241 -31 -31
-60 -67 -65 -81 -12 -31 -40 -33 -40 -4 0 12 -14 80 -30 151 -30 126 -31 131
-15 184 10 34 23 58 38 66 65 37 123 46 188 28z m-2691 -154 c0 -46 -7 -123
-15 -172 -15 -83 -108 -390 -125 -407 -13 -15 -40 72 -55 180 -13 90 -13 109
-1 122 7 9 21 48 29 88 9 40 27 94 41 120 27 54 103 153 117 153 5 0 9 -38 9
-84z m4096 20 l26 -18 -4 -107 c-6 -125 -19 -161 -99 -281 -69 -104 -139 -218
-139 -227 0 -4 27 29 60 74 82 112 106 126 51 29 -40 -69 -116 -161 -174 -209
-48 -41 -72 -43 -47 -4 28 46 51 145 57 250 4 79 3 111 -6 116 -6 4 -15 32
-20 62 -5 30 -25 101 -45 158 -20 57 -36 112 -36 121 0 21 36 47 76 53 16 3
84 4 151 3 96 -2 127 -7 149 -20z m-1729 -68 c-3 -46 -14 -110 -23 -143 -9
-33 -20 -76 -23 -95 -9 -44 -57 -120 -75 -120 -33 0 -83 310 -61 379 10 32 72
60 134 61 l54 0 -6 -82z m-320 -24 c42 -41 -16 -235 -98 -329 -17 -19 -37 -35
-43 -35 -16 0 -73 327 -60 340 37 34 174 51 201 24z m-674 -15 c32 -9 37 -14
37 -41 0 -16 -22 -77 -50 -133 -70 -147 -130 -184 -153 -96 -12 47 9 173 38
231 23 44 29 50 58 50 17 0 49 -5 70 -11z m325 -57 c23 -30 13 -79 -43 -190
-81 -162 -101 -171 -98 -41 3 136 33 242 70 252 26 6 56 -3 71 -21z m-1636 -9
c9 -10 20 -56 26 -106 6 -48 14 -92 17 -97 4 -6 22 -10 41 -10 45 0 104 -25
104 -44 0 -21 -42 -130 -75 -196 -32 -63 -145 -220 -158 -220 -20 0 -81 77
-108 135 l-28 60 24 102 c24 100 99 342 117 376 5 9 12 17 17 17 4 0 15 -8 23
-17z m-1996 -152 c35 -121 123 -262 217 -348 77 -70 151 -117 273 -172 112
-52 137 -67 89 -55 -89 21 -207 73 -286 126 -131 87 -208 177 -307 359 l-84
151 28 29 28 29 13 -32 c7 -17 21 -56 29 -87z m2254 -250 c0 -89 -133 -258
-349 -440 -61 -52 -111 -98 -111 -102 0 -14 58 -49 82 -49 13 0 44 13 69 29
51 32 257 233 401 391 69 75 99 102 107 94 8 -7 7 -15 -3 -29 -12 -17 -2 -25
137 -114 133 -85 170 -115 316 -258 l165 -162 -17 -36 c-30 -62 -44 -59 -209
38 -49 28 -88 57 -88 65 0 28 -32 73 -74 102 -53 35 -74 37 -110 9 l-26 -21
-73 46 c-82 51 -167 122 -167 139 0 7 21 39 45 71 78 103 49 81 -54 -41 -135
-161 -284 -304 -350 -337 -49 -26 -57 -27 -102 -16 -54 13 -94 47 -102 88 -3
15 -5 27 -4 27 1 1 48 41 105 90 140 120 267 258 333 360 57 89 79 104 79 56z
m79 -6 c47 -54 42 -79 -36 -176 -123 -152 -299 -312 -400 -363 -78 -39 -71 -3
14 71 169 145 393 383 393 416 0 7 -7 22 -15 33 -18 24 -19 54 -1 54 8 0 28
-16 45 -35z m-918 0 c64 -23 219 -97 219 -106 0 -10 -59 5 -165 42 l-94 33
-81 -87 c-92 -98 -193 -170 -301 -214 -77 -32 -226 -69 -236 -59 -13 13 20 34
74 45 190 42 388 166 499 311 21 27 39 50 40 50 1 0 21 -7 45 -15z m359 -244
c0 -32 18 -43 76 -50 32 -3 59 -11 62 -18 4 -13 -115 -139 -123 -131 -7 6 -45
196 -45 220 0 17 3 18 15 8 8 -7 15 -20 15 -29z m900 -293 c22 -36 28 -142 9
-153 -26 -17 -60 6 -80 53 -42 97 20 183 71 100z m-2086 -72 c33 -19 111 -51
171 -71 126 -43 232 -53 418 -38 l109 9 28 -36 c15 -19 37 -53 48 -76 29 -56
177 -210 385 -398 97 -88 178 -165 181 -173 13 -33 79 -4 299 130 54 32 101
57 104 53 3 -3 16 -45 28 -93 62 -241 169 -589 210 -680 38 -87 92 -252 98
-303 3 -21 -37 -15 -84 13 -51 30 -343 225 -422 282 -34 25 -163 144 -287 263
-423 410 -490 468 -644 561 -165 100 -419 204 -533 217 -32 4 -170 8 -308 8
l-250 1 0 24 c0 18 19 41 72 85 40 34 107 102 149 151 42 50 85 98 95 107 23
20 39 16 133 -36z m3126 19 c9 -19 15 -59 15 -110 0 -74 -2 -83 -33 -127 -40
-59 -96 -98 -139 -98 -38 0 -103 47 -150 108 l-33 43 25 37 c28 42 133 138
179 164 19 11 48 17 76 15 39 -2 47 -6 60 -32z m227 -101 c24 -37 53 -132 53
-173 -1 -20 -7 -53 -14 -73 l-14 -38 30 25 c31 26 94 43 108 29 11 -11 -5
-193 -21 -244 -23 -73 -61 -78 -129 -14 -61 57 -67 75 -40 117 l22 32 -29 -32
-28 -33 -95 46 c-101 48 -130 69 -130 92 0 7 27 44 61 80 34 37 86 104 116
149 48 73 57 82 74 73 10 -6 26 -22 36 -36z m-3934 -111 l75 -67 -72 -79 c-59
-67 -72 -76 -74 -58 -4 24 -26 27 -61 7 l-24 -13 39 -13 39 -13 -85 -80 -85
-79 55 6 c30 3 90 15 134 26 43 12 99 20 125 18 l46 -3 -2 -45 c-3 -61 -10
-85 -30 -105 -9 -10 -51 -86 -94 -171 -83 -167 -79 -164 -105 -74 -9 32 -166
415 -194 471 -39 82 -22 111 61 107 l53 -3 17 55 c21 67 24 55 5 -17 -8 -29
-11 -53 -7 -53 3 0 19 48 35 108 33 121 41 142 60 142 7 0 47 -30 89 -67z
m3288 -14 c38 -34 80 -80 93 -103 59 -97 159 -175 288 -224 70 -27 74 -30 108
-90 19 -34 61 -98 93 -141 80 -107 122 -132 442 -259 164 -66 350 -132 368
-132 25 1 -47 32 -187 79 -132 45 -193 70 -174 71 13 0 565 -188 595 -204 18
-9 40 -16 51 -16 26 0 170 -50 284 -99 68 -29 143 -50 255 -72 93 -19 161 -38
166 -45 12 -21 122 -17 213 8 43 11 100 23 127 25 41 4 47 2 47 -13 0 -11 -34
-51 -75 -91 -111 -108 -225 -159 -412 -188 -98 -15 -128 -16 -230 -5 -132 13
-165 24 -233 76 -71 54 -88 92 -97 214 l-8 104 -120 42 c-66 24 -134 43 -152
43 -46 1 -224 65 -338 122 -55 27 -105 49 -112 49 -7 0 -85 33 -174 73 -196
87 -229 115 -322 264 l-67 110 -118 63 c-139 75 -143 78 -239 199 -42 51 -93
112 -114 135 -35 36 -50 66 -33 66 3 0 37 -28 75 -61z m1006 -229 c17 -51 16
-171 -3 -215 -27 -64 -114 -186 -127 -178 -39 23 -79 60 -98 90 -28 46 -20 95
28 170 44 69 151 175 173 171 8 -2 20 -19 27 -38z m1688 -72 c66 -142 102
-255 110 -346 5 -54 4 -82 -3 -82 -13 0 -19 -17 -36 -100 -18 -84 -52 -154
-122 -247 l-54 -73 -66 0 c-45 0 -77 6 -104 20 -46 23 -60 45 -60 93 0 26 5
36 20 40 15 4 38 43 81 133 104 221 179 473 179 603 0 28 3 51 6 51 3 0 25
-42 49 -92z m-395 -19 c6 -11 14 -60 17 -110 4 -63 10 -89 19 -89 12 0 30 19
118 125 16 19 28 26 34 20 5 -5 14 -64 21 -131 12 -117 12 -123 -9 -172 -31
-73 -50 -87 -94 -72 -19 6 -54 28 -77 49 l-42 37 16 47 c15 46 15 49 -8 100
-28 62 -41 217 -19 217 7 0 18 -9 24 -21z m-1155 -56 c41 -57 65 -122 65 -177
0 -60 14 -76 33 -40 8 16 25 38 37 49 12 11 34 40 48 64 l26 44 52 -56 c46
-50 57 -69 90 -171 l38 -116 -20 -27 c-35 -47 -43 -48 -154 -17 -119 33 -131
45 -131 128 0 31 -4 56 -8 56 -5 0 -18 -27 -30 -60 -24 -65 -23 -64 -49 -50
-9 5 -53 23 -98 40 -44 16 -88 36 -98 43 -17 13 -17 15 4 57 12 23 28 61 35
84 30 93 72 180 91 187 31 12 32 11 69 -38z m1816 -160 c33 -189 23 -381 -26
-498 -12 -31 -17 -35 -34 -26 -11 6 -30 41 -45 83 -24 68 -26 82 -22 213 3
132 12 189 62 395 6 24 6 24 25 -12 11 -21 29 -91 40 -155z m-1147 -13 c25
-27 46 -50 47 -52 1 -2 6 -72 13 -157 13 -187 18 -181 -124 -176 -105 3 -189
29 -201 61 -15 42 13 120 91 245 62 99 87 129 110 129 10 0 38 -22 64 -50z
m-4414 -30 c37 -7 67 -22 99 -48 79 -64 200 -183 220 -216 23 -39 58 -187 67
-286 7 -86 36 -188 87 -310 19 -47 37 -98 39 -115 3 -27 0 -30 -27 -30 -49 0
-40 -26 24 -72 32 -23 89 -71 127 -105 38 -35 89 -76 114 -92 25 -16 85 -68
134 -115 97 -95 98 -84 5 55 -99 146 -213 422 -250 601 -12 60 -8 87 10 67 5
-5 60 -134 121 -286 88 -216 116 -278 130 -278 36 0 60 -36 97 -145 44 -128
52 -133 133 -89 30 16 54 24 59 18 4 -5 14 -31 21 -59 8 -27 22 -70 33 -95 10
-25 28 -74 39 -110 18 -60 42 -100 52 -89 2 2 -1 29 -5 59 -22 134 -22 150 -5
150 9 0 18 -11 21 -27 3 -16 12 -39 20 -53 8 -14 23 -41 34 -60 18 -33 67
-176 89 -262 9 -32 8 -36 -6 -31 -35 13 -69 40 -125 99 -31 34 -96 95 -144
135 -48 41 -171 153 -273 249 -102 96 -221 209 -266 251 -159 149 -462 330
-669 398 -156 51 -236 64 -400 64 -165 0 -280 -19 -450 -73 -51 -17 -97 -30
-104 -30 -6 0 26 55 72 123 139 202 241 391 337 619 34 80 82 153 113 170 13
8 77 15 157 19 74 3 154 6 176 7 23 1 65 -3 94 -8z m-836 -174 c20 -50 36 -97
36 -105 -1 -15 -57 121 -75 179 -15 49 4 14 39 -74z m5584 64 c43 -26 74 -62
108 -124 50 -90 43 -268 -10 -282 -14 -3 -66 9 -132 31 -136 45 -198 75 -202
97 -3 14 69 149 145 276 17 27 48 28 91 2z m-2108 -319 c0 -5 -25 -23 -56 -41
-64 -36 -152 -54 -190 -40 -32 13 -22 30 17 30 32 0 174 36 198 50 21 12 31
12 31 1z m-3700 -112 c148 -15 153 -17 128 -52 -12 -16 -22 -16 -163 4 -82 11
-151 22 -153 24 -2 2 1 12 7 24 9 15 19 19 44 16 17 -3 79 -9 137 -16z m-1465
-231 c36 -16 31 -25 -11 -20 -26 3 -35 1 -30 -7 4 -6 18 -11 32 -11 26 0 31
-12 11 -28 -10 -8 -21 -6 -45 8 -38 23 -40 33 -10 54 27 19 21 19 53 4z m4704
-359 c116 -149 176 -238 166 -247 -16 -16 -285 320 -285 355 0 13 4 23 9 23 4
0 54 -59 110 -131z m-3030 4 l24 -16 -49 -25 -49 -25 35 -16 c19 -8 37 -17 39
-18 3 -2 -5 -16 -16 -31 -11 -16 -35 -56 -52 -90 -17 -34 -40 -77 -51 -94
l-21 -33 3 127 3 126 -77 38 c-43 21 -75 40 -72 43 6 6 166 27 224 30 20 0 46
-6 59 -16z m-2361 -49 c12 -4 22 -11 22 -16 0 -13 -100 -1 -114 13 -11 10 55
12 92 3z m2935 -110 c80 -18 291 -116 377 -174 101 -70 164 -147 224 -275 22
-46 39 -191 31 -265 -3 -36 -13 -94 -22 -130 -8 -36 -16 -112 -17 -170 l-2
-105 71 -80 c39 -44 115 -138 170 -210 153 -202 387 -475 406 -475 23 0 19 58
-15 182 -20 73 -40 160 -45 193 -28 189 -74 428 -91 479 -32 95 -22 139 22 99
49 -44 69 -109 93 -308 23 -199 60 -365 121 -556 72 -225 76 -238 72 -251 -5
-13 -147 102 -271 221 -55 53 -144 150 -197 216 -142 175 -309 363 -387 435
-328 301 -692 439 -1078 409 -58 -5 -160 -18 -226 -29 -67 -12 -123 -20 -124
-18 -4 6 173 393 230 503 60 114 114 200 172 272 40 49 39 49 261 51 109 2
174 -3 225 -14z m2096 -23 c12 -7 5 -20 -31 -60 -68 -76 -90 -199 -48 -269 30
-48 26 -54 -27 -46 -55 7 -71 18 -56 36 6 7 13 31 15 53 9 80 37 167 70 220
51 81 52 82 77 66z m56 -443 c-3 -13 -18 -111 -34 -219 -16 -108 -34 -206 -40
-217 -8 -15 -21 -22 -41 -22 -36 0 -37 5 -6 67 29 56 45 121 46 177 0 47 57
236 71 236 5 0 7 -10 4 -22z m-4415 -543 c23 -12 23 -14 7 -21 -22 -8 -97 12
-97 26 0 15 61 11 90 -5z m-420 -136 c30 -6 90 -20 133 -31 l78 -21 -43 -28
c-29 -20 -56 -29 -83 -29 -50 0 -192 35 -222 55 -22 15 -31 54 -16 69 7 7 59
2 153 -15z m198 10 c60 -15 76 -29 33 -29 -41 0 -111 20 -111 32 0 11 22 10
78 -3z m-313 -99 c3 -5 -1 -10 -9 -10 -8 0 -18 5 -21 10 -3 6 1 10 9 10 8 0
18 -4 21 -10z m2418 -15 c40 -8 114 -21 165 -29 81 -13 111 -24 225 -84 178
-92 406 -235 477 -300 92 -83 256 -302 375 -500 43 -72 77 -118 95 -127 30
-16 31 -18 95 -200 25 -71 49 -139 55 -150 5 -11 25 -62 44 -113 68 -178 156
-330 321 -555 36 -49 65 -93 65 -98 0 -42 -304 113 -518 265 -124 87 -257 204
-407 356 -229 233 -397 357 -658 485 -160 79 -333 140 -494 175 -94 20 -111
21 -230 11 -70 -7 -159 -18 -197 -26 -38 -8 -73 -12 -78 -9 -17 11 -1 57 90
266 49 112 103 241 121 288 52 132 141 298 178 331 32 27 39 29 119 29 47 0
117 -7 157 -15z m-795 -115 c20 -10 69 -33 107 -50 39 -17 89 -42 112 -56 l41
-24 -31 -90 c-18 -49 -35 -90 -38 -90 -4 0 -39 44 -78 98 -39 53 -81 111 -94
127 -32 40 -70 105 -62 105 3 0 23 -9 43 -20z m3989 -147 c27 -68 121 -219
183 -297 123 -155 307 -317 511 -452 125 -81 145 -99 64 -55 -222 121 -499
339 -587 462 -52 73 -176 302 -192 357 -12 36 4 25 21 -15z m-3935 -123 c59
-59 108 -113 108 -120 0 -7 -29 -78 -64 -159 -35 -80 -67 -154 -70 -163 -4
-14 -17 -18 -54 -18 -94 0 -141 19 -89 36 l22 8 -25 7 c-14 4 -47 7 -74 8
l-49 1 6 40 c3 21 36 140 73 264 64 211 69 224 88 214 11 -6 68 -59 128 -118z
m-2103 44 c17 -4 31 -10 31 -15 0 -10 -71 0 -84 12 -12 11 8 12 53 3z m1622
-196 c12 -24 31 -53 42 -65 16 -18 17 -23 5 -23 -13 0 -78 104 -78 124 0 16
11 2 31 -36z m3151 -73 c70 -16 226 -39 331 -50 203 -20 693 -208 751 -288 39
-53 7 -50 -144 17 -80 35 -194 82 -255 106 -200 76 -597 170 -719 170 -36 0
-45 4 -54 25 -7 14 -12 28 -12 30 0 9 38 5 102 -10z m-2977 -215 c10 -11 16
-20 13 -20 -3 0 -13 9 -23 20 -10 11 -16 20 -13 20 3 0 13 -9 23 -20z m-370
-140 c3 -5 -3 -10 -14 -10 -12 0 -21 5 -21 10 0 6 6 10 14 10 8 0 18 -4 21
-10z m3591 -77 c26 -13 38 -24 36 -36 -2 -11 13 -26 44 -44 86 -52 199 -141
334 -266 243 -224 305 -285 298 -292 -4 -4 -24 -8 -45 -7 -57 0 -1136 73
-1150 77 -12 4 -44 61 -63 111 -9 23 -8 24 13 13 12 -7 40 -25 62 -40 36 -26
67 -36 170 -56 27 -5 24 0 -44 73 -72 78 -213 278 -225 321 -4 12 -2 24 3 28
20 12 50 -15 119 -107 38 -51 98 -124 133 -162 60 -66 63 -67 72 -45 10 29 2
98 -24 201 -22 87 -25 176 -6 201 11 16 15 16 57 -11 94 -59 140 -82 140 -72
0 5 -9 19 -20 30 -19 19 -50 82 -50 103 0 15 100 2 146 -20z m822 -37 c41 -21
57 -44 93 -131 18 -44 86 -187 151 -317 64 -131 114 -238 110 -238 -4 0 -12 4
-18 8 -16 10 -161 286 -229 435 -32 70 -78 157 -101 193 -24 35 -41 64 -38 64
3 0 17 -6 32 -14z m-4698 -6 c0 -5 -6 -10 -14 -10 -8 0 -18 5 -21 10 -3 6 3
10 14 10 12 0 21 -4 21 -10z m1675 -217 c11 -6 45 -13 75 -17 81 -10 253 -71
345 -121 115 -62 202 -127 348 -254 164 -144 506 -478 540 -528 14 -21 60
-114 102 -207 144 -323 245 -482 430 -676 49 -52 115 -122 145 -155 31 -33 78
-79 105 -102 l50 -43 -90 24 c-209 56 -280 89 -570 266 -361 219 -554 331
-639 370 -182 83 -572 207 -1029 327 -32 9 -55 18 -53 21 3 2 26 -1 52 -7 29
-7 51 -8 56 -3 19 19 -14 180 -78 379 -52 162 -70 206 -91 223 -34 26 -60 25
-69 -2 -17 -56 -45 -109 -53 -104 -5 3 13 77 40 163 28 87 58 190 69 228 25
92 88 247 106 261 11 9 36 6 102 -10 48 -13 96 -27 107 -33z m-2270 -133 c4
-6 -7 -10 -27 -10 -25 0 -29 3 -18 10 19 13 37 13 45 0z m-100 -50 c3 -5 1
-10 -4 -10 -6 0 -11 5 -11 10 0 6 2 10 4 10 3 0 8 -4 11 -10z m5052 -293 c10
-8 40 -57 68 -108 66 -122 163 -213 351 -329 87 -54 161 -109 204 -151 37 -37
77 -72 89 -78 12 -7 73 -17 136 -24 152 -15 138 -32 -25 -32 -81 0 -116 -3
-109 -10 25 -25 567 -2 584 25 7 12 -30 122 -64 189 -18 34 -31 65 -29 67 2 2
23 -6 46 -17 57 -29 272 -273 272 -310 0 -14 -24 -20 -137 -38 -382 -59 -446
-58 -1458 14 -264 18 -608 41 -765 51 -275 17 -285 19 -306 41 -43 46 -57 94
-67 220 -9 109 -8 125 8 149 9 14 12 23 5 19 -7 -4 -18 -21 -26 -39 -19 -45
-17 -5 2 45 19 47 6 49 172 -20 113 -47 414 -151 435 -151 5 0 7 7 3 15 -7 19
29 21 41 2 4 -7 35 -21 68 -31 33 -10 94 -35 135 -56 61 -30 94 -39 178 -49
57 -7 106 -11 108 -8 2 2 -19 20 -48 39 -90 60 -247 191 -379 314 -69 66 -147
136 -172 157 -26 21 -47 41 -47 46 0 4 53 17 119 30 252 49 570 63 608 28z
m2296 -885 c103 -48 187 -93 187 -99 0 -7 18 -24 40 -38 22 -14 40 -29 40 -33
0 -7 -195 -83 -212 -82 -5 0 -8 6 -8 13 0 37 -67 101 -192 186 -113 76 -358
272 -358 286 0 2 71 -30 158 -71 86 -42 241 -115 345 -162z m-701 -41 c25 -16
89 -68 143 -116 55 -48 167 -144 249 -213 174 -144 291 -255 276 -260 -14 -5
-62 32 -209 163 -68 60 -212 184 -320 273 -108 90 -197 168 -199 173 -6 16 13
10 60 -20z m-1967 -26 c105 -3 458 -9 785 -14 424 -7 644 -14 765 -27 133 -13
179 -14 213 -5 23 6 50 11 60 11 10 0 53 -40 98 -91 110 -128 382 -379 410
-379 5 0 20 -9 33 -19 23 -18 22 -18 -84 -24 -60 -4 -145 -7 -190 -7 -45 0
-106 -4 -136 -10 -111 -19 -374 -40 -694 -55 -181 -9 -370 -23 -420 -31 -94
-16 -335 -50 -609 -84 -88 -11 -192 -20 -230 -20 -66 -1 -178 -12 -253 -26
-29 -6 -33 -3 -52 35 -19 36 -26 41 -56 41 -18 0 -36 4 -39 9 -3 4 -32 18 -63
30 -62 23 -112 56 -102 66 4 3 58 -10 120 -29 137 -41 344 -88 370 -84 14 2
-2 20 -63 68 -116 91 -207 179 -296 285 -77 91 -212 289 -212 310 0 14 56 32
155 51 46 9 110 12 185 9 63 -3 201 -8 305 -10z m2655 -598 c33 -11 91 -43
256 -142 l71 -43 89 50 c111 62 199 108 209 108 30 0 -189 -128 -273 -159
l-58 -22 -101 60 c-194 115 -217 124 -313 125 -96 1 -180 -11 -180 -24 0 -12
49 -57 200 -186 63 -53 114 -100 113 -103 -6 -18 -33 -3 -128 73 -58 48 -108
86 -110 86 -3 0 -6 -57 -7 -126 l-3 -126 -80 -30 c-281 -104 -642 -187 -1040
-239 -267 -36 -870 -36 -1135 0 l-55 7 80 6 c81 6 213 34 229 48 4 5 -18 13
-50 19 -90 17 -103 23 -189 89 -101 76 -234 142 -471 233 -15 5 -25 11 -23 13
17 16 510 87 949 136 145 17 292 35 325 41 33 5 164 13 290 16 223 6 231 5
265 -16 58 -35 144 -24 202 26 26 23 431 69 758 86 113 6 146 5 180 -6z
m-3480 -97 c0 -27 -140 -73 -369 -120 -88 -18 -130 -31 -118 -35 36 -15 223
17 498 84 45 10 51 7 77 -44 11 -22 55 -74 97 -115 43 -41 101 -107 130 -145
29 -39 59 -75 66 -82 8 -6 76 -18 152 -27 140 -16 181 -28 174 -49 -6 -21 -41
-19 -163 8 -258 58 -585 163 -824 265 -225 96 -295 131 -279 140 8 4 79 27
159 49 238 68 400 97 400 71z"/>
<path d="M3992 10597 c-31 -35 -42 -62 -42 -107 0 -45 21 -94 44 -103 39 -15
107 27 136 83 24 47 25 88 4 118 -19 28 -38 29 -29 2 18 -56 -39 -170 -84
-170 -22 0 -51 31 -51 54 0 23 52 75 58 57 2 -7 -1 -18 -7 -24 -16 -16 -13
-47 4 -47 9 0 27 12 40 26 l24 26 -24 48 c-29 57 -46 66 -73 37z"/>
<path d="M3570 10069 c-47 -25 -60 -46 -60 -89 0 -47 22 -67 79 -72 37 -2 46
1 61 22 29 40 33 90 10 128 -22 37 -40 39 -90 11z m58 -37 c2 -12 -6 -43 -18
-69 l-21 -48 -19 35 c-18 34 -18 36 -1 55 10 11 21 28 25 38 8 24 30 17 34
-11z"/>
<path d="M4243 10036 c-10 -13 -29 -43 -42 -68 -29 -53 -24 -87 19 -129 34
-34 58 -36 93 -9 14 11 34 20 45 20 45 0 59 71 28 143 -27 63 -109 87 -143 43z
m71 -44 c8 -15 16 -50 17 -77 3 -43 1 -50 -16 -52 -11 -2 -31 6 -45 16 -21 17
-23 22 -12 46 7 14 9 37 6 50 -12 49 26 63 50 17z"/>
<path d="M3860 9772 c-32 -26 -39 -93 -11 -121 27 -27 82 -28 105 -2 66 73
-18 184 -94 123z m80 -26 c0 -40 -11 -56 -37 -56 -21 0 -23 4 -18 23 4 12 9
30 11 40 8 27 44 22 44 -7z"/>
<path d="M6265 10425 c-166 -42 -300 -85 -445 -142 -122 -48 -126 -50 -118
-58 3 -3 20 1 39 9 36 14 148 33 138 22 -3 -3 -102 -39 -220 -80 -150 -52
-215 -78 -217 -90 -2 -9 -1 -16 3 -16 8 0 415 139 524 179 46 17 110 37 144
46 45 12 72 26 106 58 45 41 83 60 186 90 103 31 -8 16 -140 -18z"/>
<path d="M8913 10027 c-7 -43 -7 -66 0 -75 17 -21 27 5 27 70 0 78 -14 80 -27
5z"/>
<path d="M10248 9408 l-15 -53 49 -53 c26 -30 48 -59 48 -66 0 -8 8 -24 19
-37 16 -20 36 -90 57 -197 14 -71 87 42 88 136 1 143 -113 322 -204 322 -25 0
-29 -6 -42 -52z"/>
<path d="M9008 9424 c-15 -5 -18 -18 -18 -79 0 -117 61 -237 148 -295 72 -48
182 -36 242 25 28 29 32 38 26 69 -10 51 -83 155 -141 198 -77 59 -201 98
-257 82z"/>
<path d="M8840 9344 c0 -14 4 -23 9 -20 5 3 7 15 4 26 -7 28 -13 25 -13 -6z"/>
<path d="M9450 9136 c0 -8 -13 -40 -30 -71 -16 -31 -30 -61 -30 -66 0 -18 30
-8 61 19 26 23 31 35 31 70 0 23 -4 46 -7 52 -9 15 -25 12 -25 -4z"/>
<path d="M9792 9114 c-12 -8 -22 -21 -22 -28 0 -20 116 -125 146 -132 58 -15
61 33 8 104 -45 58 -97 81 -132 56z"/>
<path d="M4414 9449 c-42 -10 -42 -10 -37 -48 5 -35 3 -39 -26 -51 -52 -21
-46 -30 20 -27 87 3 93 -10 37 -95 l-44 -67 -24 22 -23 22 18 -30 c41 -64 188
-311 201 -337 26 -50 40 -32 69 94 10 43 20 76 23 74 2 -3 -6 -48 -18 -101
-19 -83 -20 -99 -8 -113 13 -15 68 -119 68 -127 0 -2 -14 1 -32 6 -17 5 -32 8
-33 6 -1 -1 -19 -83 -39 -182 -42 -202 -71 -321 -88 -362 l-11 -28 -7 25 c-5
14 -8 53 -9 86 -1 59 -3 62 -37 85 -69 47 -168 202 -189 297 -5 27 -11 33 -28
30 -20 -3 -22 -9 -21 -63 1 -50 7 -74 38 -131 20 -39 59 -96 86 -127 37 -40
50 -63 50 -85 0 -25 9 -37 45 -63 45 -33 46 -33 23 -45 -42 -24 -103 -27 -138
-9 -119 62 -219 223 -256 413 -21 109 -18 289 6 390 11 46 20 91 20 100 -1 34
-38 -31 -59 -103 -86 -289 -23 -545 185 -751 172 -171 337 -204 533 -108 141
70 303 264 367 439 15 42 20 65 12 63 -13 -5 -24 -22 -38 -60 -6 -18 -17 -28
-30 -28 -19 0 -20 2 -7 28 15 28 41 107 51 154 l6 26 -89 7 -88 7 -6 62 c-3
33 -14 89 -25 122 l-19 61 98 23 c55 12 99 26 99 30 0 5 3 15 6 24 9 24 -47
21 -145 -7 l-81 -24 -37 51 c-76 101 -191 161 -278 145 -22 -4 -49 -11 -60
-14 -34 -11 76 85 127 111 27 13 75 31 108 40 56 14 64 14 129 -4 108 -31 216
-120 264 -218 24 -51 37 -56 37 -15 0 56 -133 227 -242 311 -77 59 -327 97
-454 69z m223 -421 c-3 -8 -6 -5 -6 6 -1 11 2 17 5 13 3 -3 4 -12 1 -19z m47
-689 c-20 -22 -95 -59 -120 -59 -27 0 -14 18 19 24 17 3 50 17 72 31 49 30 53
31 29 4z m-199 -269 c3 -5 -1 -10 -10 -10 -9 0 -13 5 -10 10 3 6 8 10 10 10 2
0 7 -4 10 -10z"/>
<path d="M4323 9088 c-23 -29 -63 -151 -73 -219 -18 -120 10 -280 66 -391 24
-48 118 -158 134 -158 4 0 11 26 14 58 4 31 16 108 28 170 l20 113 -26 24
c-28 26 -34 67 -15 108 9 21 1 42 -60 165 -39 78 -73 142 -75 142 -2 0 -8 -6
-13 -12z"/>
<path d="M4474 8753 c-6 -31 -3 -39 16 -55 36 -29 56 -24 31 8 -12 15 -21 40
-21 55 0 41 -18 36 -26 -8z"/>
<path d="M9068 6048 c46 -21 145 -40 136 -27 -7 11 -131 49 -158 48 -15 0 -9
-6 22 -21z"/>
<path d="M5085 3056 c-12 -76 3 -119 188 -535 40 -89 86 -146 104 -128 13 13
-80 311 -134 432 -62 137 -135 275 -145 275 -4 0 -10 -20 -13 -44z"/>
<path d="M6940 1334 c0 -7 64 -65 240 -219 74 -64 187 -166 252 -226 108 -101
138 -123 138 -100 0 20 -366 354 -561 514 -42 34 -69 46 -69 31z"/>
<path d="M3365 10010 c-10 -11 -15 -26 -11 -36 6 -15 8 -15 26 1 11 10 20 24
20 31 0 22 -17 24 -35 4z"/>
<path d="M1160 5700 c-44 -87 -45 -90 -30 -90 5 0 21 21 34 48 13 26 36 58 50
71 31 29 34 51 6 51 -15 0 -30 -20 -60 -80z"/>
</g>
</svg>
