<svg xmlns="http://www.w3.org/2000/svg" fill="#fff" width="489.3415" height="478.8379" viewBox="0 0 489.3415 478.8379"><g id="Calque_2" data-name="Calque 2"><g id="Calque_1-2" data-name="Calque 1"><path d="M487.9853,12.0974c-1.1772.626-2.3547,1.252-4.5329,2.41,1.52-5.4919,2.767-10,4.0144-14.5073a7.4493,7.4493,0,0,0-3.1958,3.2632c-9.28,17.071-18.9678,33.9389-27.6761,51.2981-10.0572,20.0486-19.4243,40.4514-28.7646,60.85-11.5606,25.2475-22.7761,50.6533-34.179,75.9736a52.82,52.82,0,0,1-2.747,4.76q-.7275-.1029-1.4551-.2055-7.22-22.5256-14.4339-45.054c-2.0026-6.2776-.64-11.7688,3.88-16.5747,2.9614-3.1487,5.8688-6.3613,8.6018-9.7075,2.2068-2.7019,1.3108-6.3811-1.4634-6.12-4.1451.3892-8.7085.91-12.1623,2.9522-4.6438,2.7453-8.4341,6.9555-12.5117,10.6245a20.5,20.5,0,0,0-2.3767,3.3466c6.5515-.8383,6.4934-.833,7.0568,5.4874a31.08,31.08,0,0,0,1.1976,6.8627q4.2181,12.9133,8.4956,25.8072a14.2454,14.2454,0,0,1,3.175,9.6118q3.52,10.6326,7.0341,21.2678c.6891,2.09,1.1949,4.24,2.0084,7.1609-.8749-.7275-1.6745-1.3926-2.43-2.0205a14.5823,14.5823,0,0,1-1.15,4.2537c-.1991,1.4831-.2563,2.2287-.417,2.94-2.487,11.0074-5.5188,21.9222-7.3826,33.0334a155.1265,155.1265,0,0,1-29.7775,69.1681c-4.1451,5.4631-8.9386,10.4338-13.4344,15.6306.61-1.208,1.2273-2.3931,1.8436-3.5816-.5638.4057-1.1522.7864-1.7428,1.1656-3.883,5.58-9.6675,10.0882-15.9382,14.04-15.6687,15.0945-55.9958,29.8134-69.5794,26.9978,2.5708-5.1068,11.0862-4.958,11.4025-13.321-18.5885,9.2812-37.6412,14.27-57.1425,16.6529a10.79,10.79,0,0,1-3.007.3591c-.0484-.0012-.0965,0-.1449-.0013q-7.85.846-15.7936,1.1918-.05-.1563-.1006-.3123c-1.7686.1526-3.5381.29-5.3127.3919l1.1607.4144c-2.2606.23-3.615.4307-4.9758.4954-7.6329.3632-15.3119.2966-22.8883,1.1489-6.7927.7643-12.9816-4.645-19.8035-2.3562-1.2626.7486-2.3616,1.8669-3.7088,2.4958-4.5722,2.1348-10.0995,1.6-14.9872,1.24-4.6627-.3443-10.3367.62-15.5042.2292l-38.3751,1.755c3.0026,6.2887,8.5355,5.64,13.641,5.8794,7.9719.3737,15.95.6677,23.9285.8313,8.1361.1667,7.6916.2055,9.2233,8.2131,3.94,20.5964.181,41.8506,5.6424,62.2976,1.3911,5.208,2.2126,10.5684,3.2959,15.8586l1.2326,2.1436c.3332-7.943,3.725-1.94,6.1705-4.3449.4419-1.8443,1.196-4.5328,1.7233-7.265,4.1321-21.4027,8.1292-42.8321,12.4009-64.2068a59.8633,59.8633,0,0,1,4.15-12.2269c1.4939-3.3891,4.2312-4.6957,8.2126-3.6662a34.7411,34.7411,0,0,0,10.323,1.1768c23.5735-1.22,47.1822-2.1259,70.6883-4.1794a219.4246,219.4246,0,0,0,66.6767-16.1217c13.1045-5.5363,9.9645-7.1005,14.8645,7.0209,8.8767,25.5822,16.89,51.4719,24.8136,77.3711,1.3838,4.5229,4.9275,4.3979,7.7422,5.405,1.0067.36,3.589-2.7561,4.9572-4.6448,1.0183-1.4053,1.0251-3.5,1.8547-5.0939,2.581-4.9577,4.4436-10.7144,8.231-14.523a44.1594,44.1594,0,0,0,12.1147-21.8112c2.4471-10.5356,5.0107-21.0455,7.3285-31.6095,1.3868-6.3215,2.1507-12.7851,3.662-19.0724,1.135-4.7218,1.938-10.1036,4.7632-13.73,8.5586-10.987,14.3156-23.3855,19.6241-35.996,3.2777-7.7863,5.2831-16.1117,7.8077-24.2113,7.8234-25.1,15.7571-50.1667,23.2676-75.36.9947-3.3359-.1985-7.33-.4082-11.0181-.1925-3.3806-1.2428-6.9538-.4927-10.1028,2.6206-11.0009,6.1136-21.7927,8.7915-32.7817,3.0564-12.543,5.122-25.34,8.4771-37.7949,4.3606-16.188,9.0981-32.3089,14.5425-48.16,5.4526-15.8753,12.052-31.3538,17.9739-47.0723,1.4663-3.8923,2.2553-8.04,3.3559-12.0706Z"/><path d="M324.3376,49.21c.2718,1.1117.1677,2.7693.9224,3.403,2.866,2.4061.9316,4.1773-.5877,5.8457-2.4619,2.7035-5.2868,5.0813-7.6942,7.8284-6.1228,6.9866-12.0944,14.1058-18.1367,21.1632-2.482,2.899-4.8944,5.8662-7.5124,8.638-2.8611,3.0291-4.3225,6.3478-2.7286,10.4225,1.5849,4.0517,5.2227,3.39,8.5147,3.4792,21.0979.5713,42.1973,1.101,63.2911,1.7991a36.1461,36.1461,0,0,1,9.5884,2.0059L57.0785,112.73l-.0827-1.9044,11.8424-1.6262c-.7457-7.66-.6292-15.418-2.5623-22.6262-1-3.7292-5.06-7.6058-8.7259-9.4862C39.955,68.0623,22.02,59.7021,4.2166,51.0829,3.2406,50.61,2.3653,49.93,0,48.4321c3.1847-.63,4.9136-1.2093,6.6636-1.282q25.658-1.0659,51.3236-1.9408a34.5074,34.5074,0,0,1,6.8421.7542c9.3228,1.5892,18.9435,5.5436,27.8752,4.3366,12.9355-1.7481,25.2489,2.2091,38.0467.8653,13.2672-1.3931,26.7941-.31,40.4755-.31.0067-.0336-.5864,1.2492-.2594,1.5586,4.8611,4.599.0249,6.396-2.5424,8.5588-9.4426,7.9549-18.441,16.2082-24.46,27.2958-3.1747,5.848-3.0875,11.8374-1.9041,17.9051.272,1.3949,2.6972,3.353,4.1667,3.3841,24.9348.528,49.8752.8,74.8148,1.0794.7442.0083,1.4944-.5157,2.79-.9938-2.4376-6.6114-3.3174-13.3913-8.9919-18.4947-5.5016-4.948-10.138-10.8552-15.2063-16.2928-.7765-.833-1.9495-1.2927-2.7407-2.1159q-10.1411-10.5505-20.175-21.2035c-.3762-.3995-.3321-1.1953-.6527-2.4892,9.8739-.0986,19.3407-1.27,28.82,1.2281,2.3264.6131,5.0574-.0275,7.5537-.41,3.5522-.5439,7.0591-1.9838,10.5859-1.9859,12.637-.0074,25.5747-1.1734,37.8308,1.1271,13.5763,2.5484,26.3764-.05,39.5481-.8771C308.3081,47.6335,316.3158,48.7919,324.3376,49.21Z"/><path d="M176.5973,316.5246l5.5947,15.5459,1.5975-.1742-2.13-45.8182-3.0761-1.5627-4.2611,8.2079-2.4038-2.0445c5.8595-8.4248,11.7191-16.85,17.8276-25.6325-4.74-5.8346-9.6657-11.8967-15.4082-18.9649,7.1247.8232,7.0812-2.7026,6.6577-6.9123-.8552-8.5008-1.4105-17.0316-2.125-25.5471-.1053-1.2543-.4051-2.4922-.6149-3.7377l-1.8223-.148q-.7414,7.3463-1.4831,14.6925l-.5435-.01c-.5953-16.1862-1.1905-32.3723-1.8094-49.1993l25.9387,3.0657c-10-16.4409-27.2195-24.9629-39.1841-40.56,5.0494-.595,8.7225-1.4836,12.3693-1.3861,31.3817.839,62.7694,1.6033,94.1316,2.9429,12.7627.5451,25.4508,2.6748,38.2071,3.6228,4.3167.3208,8.7388-.7763,14.09-1.3257l-5.4927,6.002,10.062,2.57L323,151.2922c-4.28,1.3573-8.98,2.0142-12.7265,4.2621-4.03,2.4181-7.1653,6.3287-10.7632,9.655,13.0828,14.2116,13.3786,32.1785,15.3568,49.8725,1.9848,17.753-3.5556,34.4875-5.5659,51.6767a195.069,195.069,0,0,1-6.9134,34.5663c-5.5717,18.1171-17.8536,30.4256-35.4769,38.0823a97.8448,97.8448,0,0,1-43.6392,7.98c-13.6008-.5078-27.2455.0988-40.8694.3068-4.1306.0631-5.6557-1.2277-5.5941-5.8375.1121-8.3886-.8382-16.7914-1.3451-25.1883Zm32.1252-172.0172c-3.8895.24-9.57.2275-15.1311,1.0386-5.3856.7856-6.5073,4.0286-3.342,8.5419,2.1909,3.1239,4.7429,5.992,6.9949,9.0758,3.4263,4.6921,6.9735,9.3235,10.0143,14.2612,2.4811,4.0287,1.0787,6.1029-3.672,6.4085-2.9812.1918-5.9873.2408-8.9339.6788-6.96,1.0344-8.4527,2.1489-8.46,9.2541-.0115,10.9486.8337,21.8973,1.28,32.8473.505,12.3755,3.2091,23.7863,11.413,33.7762,6.0335,7.347,5.7388,8.764-.8552,15.7475-6.5033,6.8873-9.4357,14.7759-8.8307,24.0147.6945,10.6078,1.6808,21.1967,2.5676,31.7916.3866,4.6178,3.1687,7.1943,7.4609,8.2a26.532,26.532,0,0,0,7.3757,1.0527c14.0774-.8058,28.2995-.8433,42.1681-3.0536,14.61-2.3284,27.8635-8.6215,37.9389-20.2514a7.9958,7.9958,0,0,0,1.6761-8.7c-4.2087-11.89-8.2722-23.8325-12.5262-35.7063-.6533-1.8235-2.0839-3.3556-3.0451-5.0836-3.7392-6.7224-6.21-13.57-4.6346-21.6151,1.1611-5.93,1.8743-12.1618-4.44-16.4937-1.9308-1.3247-3.9366-3.5694-4.4661-5.7441-3.79-15.5672-7.1844-31.23-10.7894-46.8437a7.6814,7.6814,0,0,0-1.8589-3.3244c-5.498-5.8811-5.6558-5.939-1.1422-12.7108,1.7477-2.6221,2.1115-4.596-.15-7.0349-1.21-1.3049-1.5516-3.4854-2.8523-4.62-1.9382-1.6911-4.2815-3.76-6.6216-3.9967C227.4423,145.1645,218.9522,145.0119,208.7225,144.5074Z"/><path d="M125.0993,362.7186c-9.6782.414-19.4216.283-29.0118,1.4322-6.465.7748-12.7137,3.3566-19.0591,5.13l-.6522-1.58c5.88-2.5736,11.5567-5.972,17.6977-7.48,5.7031-1.4,5.6019-4.6109,5.026-8.75-1.8778-13.496-3.8661-26.9768-5.71-40.4774-2.3149-16.9476-4.0693-33.9869-6.925-50.8409-2.5233-14.8917-6.2214-29.5843-9.41-44.3627-.9457-4.3825-2.1578-8.7241-2.797-13.15-.3592-2.4871.4952-5.1326.2772-7.6614a73.5927,73.5927,0,0,0-1.7086-9.7858c-.4818-2.1388-1.9175-4.1968-1.9122-6.2884q.0379-14.9548.7078-29.9054c.2282-4.9943-1.3957-8.1794-5.8286-10.9665-7.2439-4.5545-13.8949-10.0529-20.7961-15.1531l.8424-1.8967c2.137.5453,4.6241.5889,6.3169,1.7709,1.8538,1.2945,2.9742,3.64,3.6341,4.5052,2.82-.6748,4.6718-1.79,5.8045-1.2869C75.8478,132.306,90,138.8682,104.1632,145.404a7.379,7.379,0,0,1,1.5146,1.2841c-4.7643.23-9.5276.46-15.6872.7573a53.8077,53.8077,0,0,0,4.301,3.6971c7.8752,5.1762,15.8885,10.1483,23.6579,15.4771,4.94,3.3883,9.8174,4.3417,15.2032,1.4381-.2369-2.1128-.4681-4.1751-.54-4.8194-4.0438-1.2441-7.97-1.5493-10.6805-3.5242-3.0868-2.249-5.089-5.9879-7.5626-9.0792,9.87,5.3192,19.7569,10.6066,29.59,15.9932a31.1421,31.1421,0,0,1,4.081,3.2647l-3.8478,1.6255c3.2529,3.66,1.09,5.5937-1.3641,8.3529a245.6192,245.6192,0,0,0-15.266,19.57,12.1766,12.1766,0,0,0-1.9681,6.55c-.3471,17.4467-.4873,34.8977-.6478,52.3477a13.5475,13.5475,0,0,0,.5563,2.809l7.82,1.1014c-.3863,1.1917-.39,1.8415-.7072,2.0886-8.05,6.27-8.6092,14.9569-8.383,24.2139.3161,12.9321-.2309,25.887.1662,38.8145.1267,4.1251,2.5648,8.1352,3.0709,12.3042.5632,4.64.129,9.4019.129,15.6139,2.1541-1.8339,3.8329-3.2933,5.5465-4.7107.9962-.824,2.048-1.5807,3.0747-2.3677.1757,1.4568.8879,3.1125.4346,4.336-2.02,5.4506-7.0335,7.6479-11.7251,10.115C124.9479,362.6667,125.0993,362.7185,125.0993,362.7186ZM79.0785,139.5577c.4672,3.7618,4.2152,5.72,9.9164,4.1407Z"/><path d="M114.5606,150.7715l-4.1507,3.2331c-1.3475-2.1823-2.93-4.7446-4.5119-7.307Z"/></g></g></svg>