<?xml version="1.0" encoding="UTF-8"?><svg fill="#fff" width="25px" id="Calque_2" xmlns="http://www.w3.org/2000/svg" viewBox="0 0 165.82 182.62"><g id="Calque_1-2"><g><path d="M40.34,100.51H3.78c-.27,.08-.56,.15-.87,.17-.91,.06-1.81-.2-2.7-.28,.25,4.35,.81,8.73,.83,13.09,0,1.42-.12,2.86-.1,4.29,.6,1.59,1.36,3.19,1.83,4.83,6.51,16.43,16.24,30.33,30.18,41.15,14.26,11.08,30.36,17.28,48.74,18.34v-42.34c-23.29-3.08-37.45-15.66-41.33-39.24Z"/><path d="M2.61,90.91H40.17c1.52-12.7,5.81-23.48,14.85-31.96,9-8.44,20-12.03,32.03-12.62V0C45.31,1.68,16.96,20.93,3.06,60.34c.11,4.43-1.38,8.69-1.63,13.09-.25,4.37-.92,8.69-1.24,13.05-.11,1.43-.16,2.87-.19,4.3,.86,0,1.76,.03,2.61,.17v-.05Z"/><path d="M130.59,101.97c-2.01,18.35-11.2,33.78-38.31,38.14v42.51c5.7-.97,10.81-1.66,15.83-2.73,10.07-2.15,18.89-7.05,27.49-12.58,8.92-5.73,15.48-3.45,18.62,6.19,.93,2.87,2.21,4.09,5.22,3.75,2.08-.23,4.2-.04,6.39-.04V101.97h-35.23Z"/><path d="M104.99,98.66c11.96-.44,23.92-.88,35.88-1.37,7.52-.31,15.03-.71,22.68-1.08,1.27-.06,2.27-1.11,2.27-2.38v-4.99c0-1.27-1-2.32-2.27-2.38-1.41-.07-2.71-.13-4.01-.16-18.82-.47-37.64-.87-56.45-1.46-2.57-.08-5.11-.78-7.25-2.21-6.16-4.12-13.42-3.43-18.25,2.1-4.66,5.34-4.11,12.75,.92,18.26,1.78,1.96,2.83,4.48,3.08,7.12,.58,6.07,.79,12.18,1.1,18.28,.06,1.27,1.11,2.26,2.38,2.26h2.96c1.21,0,2.23-.91,2.37-2.11,.33-2.84,.64-5.49,.94-8.15,.37-3.3,.74-6.6,1.1-9.91,.64-5.83,6.8-11.61,12.56-11.83Zm-17.91-.04c-3.53,.6-5.58-2.04-5.59-5.45-.01-3.27,2.34-5.7,5.36-5.23,2,.31,3.77,2.15,5.59,3.62,.57,.46,.9,1.16,.88,1.9v.02c-.02,.71-.35,1.38-.91,1.82-1.74,1.34-3.42,3-5.33,3.32Z"/></g></g></svg>