<svg xmlns="http://www.w3.org/2000/svg" fill="#fff" width="829.0566" height="829.0571" viewBox="0 0 829.0566 829.0571"><g id="Calque_2" data-name="Calque 2"><g id="Calque_1-2" data-name="Calque 1"><path d="M534.1924,308.3423a13.6334,13.6334,0,0,0-14.0777,13.7063,13.965,13.965,0,0,0,13.7183,14.2168,13.9634,13.9634,0,0,0,.3594-27.9231Z"/><path d="M534.4707,415.03a13.6549,13.6549,0,0,0-14.2959,13.4944A13.8176,13.8176,0,0,0,533.5405,443a13.9935,13.9935,0,0,0,.93-27.97Z"/><path d="M480.9561,361.5714a14.1117,14.1117,0,0,0-14.0328,13.9691,13.8685,13.8685,0,1,0,14.0328-13.9691Z"/><path d="M587.3711,389.5778a14.0023,14.0023,0,1,0-14.0147-13.7627A13.5872,13.5872,0,0,0,587.3711,389.5778Z"/><path d="M796.4688,253.166a415.796,415.796,0,1,0,32.5878,161.3623A413.1178,413.1178,0,0,0,796.4688,253.166ZM559.6318,375.3105a27.8511,27.8511,0,0,1,27.52-27.32,27.41,27.41,0,0,1,27.5069,27.6781c-.04,15.2543-12.6289,27.8173-27.69,27.6333A27.75,27.75,0,0,1,559.6318,375.3105Zm1.837,53.4937a27.346,27.346,0,0,1-27.3541,27.7791,27.584,27.584,0,1,1,27.3541-27.7791Zm-27.2652-79.0714a27.53,27.53,0,1,1,27.2691-27.7481C561.5024,337.613,549.6372,349.687,534.2036,349.7328ZM508.32,375.7615a27.4786,27.4786,0,1,1-27.4575-27.7271A27.4074,27.4074,0,0,1,508.32,375.7615ZM289.2375,337.2007a44.864,44.864,0,0,0-18.3781,44.5014c3.5749,20.2649,19.3637,34.7962,40.209,37.2614,16.4162,1.9415,29.55-4.2368,40.3154-19.6166l13.0239,13.0239c-19.6387,25.6567-57.7034,32.3538-85.0962,12.4011C244.8494,399.67,245.2478,349.89,276.91,324.8733Zm-64.6662-64.6665c-25.0366,39.052-35.6841,84.103-45.8894,129.2041a722.2882,722.2882,0,0,0-16.687,115.1233c-1.13,18.3667.6067,36.3825,9.56,52.8952,8.6118,15.8831,22.085,23.9136,40.3479,23.7256a75.4527,75.4527,0,0,0,49.1541-18.2282c15.2219-12.9062,30.2749-26.1973,43.9751-40.6708,23.2243-24.5355,51.2458-37.5692,84.698-39.4983,19.5132-1.1254,38.9868-1.4689,58.353.9613L638.1655,686.1288C512.5942,792.3132,306.0693,801.1819,168.1973,665.4424,27.2854,526.71,36.0327,317.5676,143.064,191.0267ZM637.5254,589.3218c10.78-5.0645,18.1982-14.1859,23.0879-26.225,5.7461-14.1486,7.5649-29.0582,6.47-44.1439-4.855-66.8936-16.3174-132.5758-38.8545-195.905a279.6769,279.6769,0,0,0-22.978-49.1966c-18.1734-30.4869-53.3447-43.8222-89.2583-35.9509-22.7251,4.9807-44.6367,12.2368-65.2349,23.1218-24.2612,12.8207-48.2949,12.7984-72.6118-.0146a236.9362,236.9362,0,0,0-75.0762-24.7347,71.5961,71.5961,0,0,0-18.9616-.3693l-93.1289-93.1291c85.3181-68.0528,182.2341-94.12,291.07-73.4312C616.4761,94.896,723.4321,195.9574,755.3818,327.0364c28.2071,115.7241,3.66,219.3032-68.9306,311.2112Z"/></g></g></svg>