<svg xmlns="http://www.w3.org/2000/svg" fill="#fff" width="1349.5316" height="1230.8668" viewBox="0 0 1349.5316 1230.8668"><g id="Calque_2" data-name="Calque 2"><g id="Calque_1-2" data-name="Calque 1"><path d="M436.6581,678.1293a111.432,111.432,0,0,0-14.2854,48.3345c-.87,14.6143-.6787,29.2947-.7852,43.9471a6.8517,6.8517,0,0,0,1.8736,4.2481,78.585,78.585,0,0,1,16.4507,27.1452c.6254,1.6874,2.466,3.8028,4.0648,4.1228,44.8887,8.9884,87.5569,25.1118,130.733,39.7727,72.7756,24.7117,145.9143,48.354,218.9,72.4486,2.5018.826,4.9944,1.68,8.1536,2.7446-9.6147,15.7507-19.02,31.1589-28.3662,46.47,3.3977,3.7478,6.8706,4.0274,11.3308,2.079a29.422,29.422,0,0,0,13.85-11.65q87.4095-139.99,174.9324-279.9091,34.0269-54.41,68.1611-108.7529c.6039-.9638,1.1612-1.9567,1.9631-3.3124L910.2393,488.38l395.6622-169.2523c9.9391,136.5811,19.833,272.5406,29.7913,409.3826l-147.74-87.5265-162.77,233.1692c5.1356,7.1052,5.9374,15.26,5.9072,23.7034q-.1374,38.498.0346,76.9968a35.5882,35.5882,0,0,0,1.4671,10.7888c1.36,4.1458,4.2086,4.4322,7.0115,1.0492a51.96,51.96,0,0,0,4.4211-6.6323c5.47-9.1767,13.3712-14.1441,24.1828-14.168q37.2417-.0824,74.4836-.162c11.06-.0266,19.7857,3.887,24.7562,14.3887,1.0906,2.3038,2.7286,3.9231,5.4964,1.9834,26.4451-18.5328,56.3732-22.3763,87.656-21.287,18.364.64,36.6007,1.5155,54.2737,7.1554,15.9293,5.0835,21.2668,12.2146,21.3039,28.8529.0332,14.8322.0084,29.6643.0127,44.4966.0022,7.5888-1.9089,14.3076-7.4229,20.0124-5.081,5.2568-4.83,11.9372-.1308,17.6341,23.2219,28.1521,27.7206,69.3326,10.3056,100.8937-12.5073,22.6668-32.6164,36.5591-57.0173,43.2452-35.7961,9.8085-72.0156,9.9347-108.25,1.238-5.661-1.3588-11.78-.9844-17.6929-1.0823-13.13-.2173-26.2648-.3544-39.396-.2835-12.8269.0694-25.6731.06-38.4722.7764-14.03.7852-25.3541-2.78-31.8032-16.3785a27.1833,27.1833,0,0,0-3.5207-5.4473c-3.6385-4.46-10.543-3.82-12.0231,1.684-4.6793,17.4014-16.59,21.7213-33.0278,20.9606-18.2881-.8463-36.6441-.1871-54.97-.2757-10.2957-.05-15.1012-2.48-21.7267-10.84-6.6485,10.118-16.876,11.05-27.6017,10.9588-14.83-.1262-29.6625-.0063-44.4939-.0358q-73.19-.1449-146.38-.3254c-19.1519-.0466-28.41-9.4535-28.3435-28.7413.0052-1.5.0309-3.0008-.0162-4.4991-.1987-6.3309-3.0285-10.5775-8.2365-12.4088-5.2593-1.8494-10.1321-.4282-14.1829,4.5255a127.3821,127.3821,0,0,1-36.5658,30.6111,125.7008,125.7008,0,0,1-57.1585,16.0286c-22.5473.9531-44.9688.9822-66.91-5.4406-19.6125-5.7409-36.3918-16.1849-50.9849-30.3324-.957-.9279-1.7366-2.1677-2.8626-2.7655-2.311-1.2272-5.5461-3.56-7.0341-2.7908-1.9862,1.026-2.7,4.5555-3.89,7.0432-.1953.4081-.0228.9873-.0387,1.4869-.4571,14.4312-6.3577,22.6821-20.11,27.0122a144.1946,144.1946,0,0,1-54.2092,6.7251c-15.8961-1.1624-31.5521-3.6851-45.6291-11.56-24.1673-13.52-37.1145-35.12-38.897-62.0637-1.8008-27.218-.8032-54.6188-1.1336-81.9384-.0477-3.9471,1.8531-8.9249-3.1171-11.1557a13.4559,13.4559,0,0,0-14.6059,1.8651c-4.3566,3.5408-6.2042,8.25-4.9045,13.7877a17.1107,17.1107,0,0,0,2.8132,5.7744c28.91,40.6471,18.1791,107.8576-36.1738,131.8162a155.1938,155.1938,0,0,1-58.6226,12.9378c-26.44.7915-52.6426-.5394-78.0671-8.7467-16.9433-5.4693-23.0251-13.8651-22.99-31.7115q.0444-22.4952.2282-44.99c.0761-8.643,2.4648-16.1072,9.29-22.2531,6.4894-5.8441,6.5533-14.9856,2.1679-22.9457-16.5645-30.0668-16.6179-60.7149-1.9295-91.3677,5.1239-10.6927,13.9673-18.539,23.8182-25.4431-7.2005-17.6781-14.3063-35.22-21.4858-52.7318Q31.7468,854.0766.5719,778.4277c-1.2144-2.9385-.3934-4.4164,1.5081-6.38q37.2049-38.4206,74.3268-76.9216c2.2432-2.3158,2.7768-4.1677,2.1859-7.7062a160.3215,160.3215,0,0,1-1.7361-24.8365c-.2119-22.6536.464-45.3272-.23-67.9616-.9373-30.5848-9.8107-59.63-18.6431-88.6652-9.6808-31.8234-20.0605-63.51-27.9214-95.7957-17.4157-71.5283-14.6678-142.5675,11.1323-211.83C71.0894,118.0756,124.84,59.2989,203.1209,23.7348a249.8033,249.8033,0,0,1,92.7169-22.333C327.7638-.0145,359.7818-.25,391.7416.2186,430.7746.79,466.0993,14.296,498.7668,34.8432c17.8843,11.2489,35.26,23.3456,52.4753,35.608C567.5214,82.0471,579.6835,97.17,588.6167,115.23c14.7342,29.7881,28.07,60.06,33.78,92.9988A208.3393,208.3393,0,0,1,625.16,244.95a138.1442,138.1442,0,0,0,4.3473,35.49c3.1547,12.3609,5.7036,25.0766,6.5244,37.7662.598,9.2449-.3375,19.3344-3.551,27.9414-9.8629,26.4176-15.593,53.5931-18.8456,81.4658-3.9295,33.673-14.9137,65.4252-26.8588,96.9029-11.6215,30.6252-22.8769,61.3924-34.8409,91.8822a142.17,142.17,0,0,1-13.516,25.4508c-5.9717,9.147-15.0819,14.2088-25.8971,16.4117-3.7986.7738-8.0149,2.0976-10.8573,4.5449C482.7147,679.1212,460.9338,682.9,436.6581,678.1293ZM351.78,12.2483c-57.1964-.0083-104.8826,9.1371-144.4311,27.6128C122.4416,79.5271,70.717,146.8757,46.3936,236.22,32.0843,288.78,34.22,341.738,44.8168,394.6755c7.7863,38.8982,19.4483,76.7472,31.0758,114.5943,13.6781,44.5216,21.5865,89.6137,15.7166,136.3946-2.9665,23.6415,2.1542,45.346,17.0453,64.369,2.1549,2.7527,3.9394,5.8279,6.295,8.3856,23.2348,25.2287,46.1481,50.7729,70.0055,75.4011,13.7463,14.19,31.1192,23.2836,50.1346,28.9011,6.2218,1.8381,12.5724,3.2406,18.7959,5.0737,27.8184,8.1936,50.8118,24.42,72.1179,43.456,10.0426,8.9723,17.3974,8.21,25.2746-2.7616a490.5426,490.5426,0,0,0,44.74-76.6659,156.1381,156.1381,0,0,0,10.5685-29.4273c2.0738-8.4774,2.0951-17.4926,2.6717-26.2929,1.0669-16.2787,1.2335-32.645,5.8843-48.4919,2.6644-9.0791-.4845-14.5236-9.0677-18.7972-14.4294-7.1842-28.9682-14.3028-42.7071-22.685-22.1251-13.4988-41.4152-30.7707-60.2939-48.4223-19.36-18.1016-39.683-34.6357-65.7-42.3825a7.626,7.626,0,0,1-1.3951-.5317c-3.4518-1.8277-3.7112-4.2511-.04-5.4948,4.5763-1.55,9.75-3.0264,14.3764-2.3992,10.6493,1.4438,19.5295,7.2546,27.686,14.0809,20.8225,17.4263,41.481,35.0535,62.5159,52.22,24.6465,20.1132,51.0668,37.2233,81.6424,47.2838,20.8612,6.8642,40.8979,6.13,60.45-4.1846,6.6206-3.4929,13.3183-6.8456,20.0488-10.1227,17.04-8.297,29.4971-21.0582,36.66-38.5761,6.4786-15.8449,12.5476-31.8664,18.4283-47.9449,15.7246-42.9935,30.2274-86.4065,38.879-131.4478,5.3711-27.9621,11.3037-55.7172,18.8388-83.1943,2.9033-10.5869,4.7472-22.2839,3.4405-33.0333-2.62-21.553-7.6348-42.8233-11.9179-64.1587a8.0645,8.0645,0,0,0-8.8888-6.6,96.1971,96.1971,0,0,0-16.9951,2.9154c-4.3011,1.1291-8.2455,3.5737-12.5175,4.8811-1.521.4654-4.5194-.1688-5.0944-1.24a6.3957,6.3957,0,0,1,.3267-5.7507,22.2889,22.2889,0,0,1,7.4248-6.47c7.9062-3.8468,15.9819-7.413,24.2064-10.5188,8.76-3.3081,12.4107-8.4205,10.7275-17.5917-4.8412-26.38-13.2178-51.517-26.8872-74.7447-21.6733-36.8284-53.2291-63.2924-89.6814-84.1929C444.2563,22.5058,394.6756,12.6553,351.78,12.2483ZM1145.6651,1197.38c-2.6619-4.1619-4.368-7.13-6.3577-9.8945q-33.9978-47.2326-68.0515-94.425c-3.8839-5.3986-3.7658-8.1575.3248-13.5127q32.7551-42.8793,65.5262-85.7463c1.0928-1.434,1.5769-3.3318,2.7293-5.8571-2.915,0-4.7171.0038-6.5193,0-18.6635-.0429-37.3433.3551-55.9838-.3223-8.9978-.3268-14.5461,2.9038-19.2017,10.3531-16.6766,26.6826-33.7753,53.1016-50.7438,79.6013-.9729,1.52-2.2105,2.87-3.3249,4.2984a8.1717,8.1717,0,0,1-1.4158-4.7652q-.0138-71.2451.0219-142.49c.0094-12.498.2365-24.9962.2086-37.4939-.0169-7.5946-1.7389-9.1565-9.07-9.1421q-23.4918.0459-46.9835.0317c-6.7762.0033-8.6149,1.7519-8.6506,8.5548-.0439,8.3325.0626,16.6655.0566,24.9984q-.0962,132.7464-.1957,265.4929c-.0048,8.58,2.5966,10.8579,11.1275,10.7725q21.7326-.2178,43.4685-.0645c7.8545.0526,10.3334-2.1828,10.3022-9.8684q-.1718-42.2394-.314-84.4787c-.0068-1.8956-.0008-3.7914-.0008-7.1223,1.4395,1.95,1.9951,2.7107,2.5593,3.4651a720.5268,720.5268,0,0,1,51.081,78.7024c8.2993,14.77,21.2094,21.0809,38.3723,19.8913,14.5927-1.0116,29.2768-.7064,43.9207-.974C1140.3558,1197.3515,1142.1619,1197.38,1145.6651,1197.38Zm-494.82-109.9422c-.1828-3.2062-.2152-7.5557-.7091-11.852-4.5543-39.6188-23.5711-69.27-61.4684-83.8472-32.1355-12.3613-65.2448-12.7123-97.76-.645-29.5866,10.98-50.527,31.03-60.092,61.708-6.1957,19.8717-7.0127,40.2248-4.6516,60.8136,4.5314,39.513,31.6753,72.4126,69.8433,83.4252,31.1219,8.98,62.0677,6.818,92.1683-4.5753,25.4868-9.6471,42.9911-27.8863,53.1215-53.1518C647.8216,1123.0389,650.4861,1106.0088,650.8448,1087.4378Zm110.1263-69.3814-1.2666-.8354c0-7.4629-.0373-14.9261.015-22.3888.0277-3.9611-.9034-6.9964-5.6949-6.9939q-26.49.0138-52.98.0086c-3.86.0018-5.8838,1.9171-5.8885,5.824-.0057,4.6654.0233,9.3307.0216,13.9961q-.0318,90.7357-.062,181.4715c-.0015,6.997,1.4411,8.4691,7.9041,8.49q23.7336.0762,47.4673.2c6.5333.0233,8.7395-1.9932,9.2124-8.4306.1218-1.6583.0721-3.3306.0691-4.9965q-.0966-52.2365-.187-104.473c-.0092-11.6642,1.5431-22.9771,8.7784-32.6932,9.1609-12.3022,21.5043-16.8546,36.4429-14.322,14.4295,2.4463,21.6539,12.2888,24.476,25.6673a116.72,116.72,0,0,1,2.7555,23.227c.2051,35.4919-.0555,70.9866-.1217,106.48-.0146,7.7678,2.1649,9.563,9.857,9.456q22.2342-.3091,44.4746-.1019c8.0721.0685,9.7571-1.36,9.7318-9.3714-.1308-41.3244-.0278-82.6516-.5321-123.9714a151.5624,151.5624,0,0,0-3.5744-30.6536c-3.8114-17.2408-11.8808-32.1143-27.8048-41.5063-31.2933-18.4566-77.0766-8.9182-98.409,20.5011C764.26,1014.5655,762.54,1016.2564,760.9711,1018.0564Zm546.7432,20.7533c0-13.975-.026-28.6131.0188-43.2509.0109-3.5366-1.9243-5.07-5.11-5.62-12.2923-2.1248-24.5057-5.0582-36.8868-6.2409-24.5689-2.3472-48.7044.165-71.1471,11.2736-22.1846,10.981-34.0289,28.9515-34.7947,54.0465-.7616,24.9541,10.6861,42.5391,32.5342,53.266,11.7521,5.77,24.3,9.91,36.4483,14.8844,7.3636,3.0148,14.8575,5.8166,21.9069,9.461,5.7588,2.9772,8.5089,8.2317,7.57,15.0241-.9059,6.5559-4.9181,10.7082-10.8577,12.4142a97.0862,97.0862,0,0,1-20.4683,4.0521c-22.3184,1.3969-42.6175-5.8762-62.1694-15.7705-1.5224-.77-3.049-1.5327-5.227-2.627,0,14.7762.0728,28.5824-.0265,42.3875-.0629,8.7434.96,10.3509,9.3766,12.6513,24.8258,6.7847,50.0062,9.8033,75.66,6.33,17.766-2.4053,34.8488-6.7512,50.09-17.0493,33.5046-22.6384,36.6388-80.997-4.6675-101.2164-8.6538-4.2362-17.5818-7.9335-26.488-11.6271-10.1334-4.2023-20.547-7.7629-30.5253-12.293-6.4543-2.93-9.5377-8.6146-8.6844-15.969.82-7.0637,5.3537-10.7757,11.6936-12.7752,10.3458-3.2629,21.09-4.5656,31.5888-2.3229C1280.9612,1030.7031,1294.0661,1035.01,1307.7143,1038.81Zm-1087.6511,1.7175c0-14.1516.1388-27.2969-.0571-40.4373-.1019-6.8376-3.44-10.2413-11.2209-11.859-18.16-3.7754-36.4885-6.0711-55.0771-4.9471-18.6819,1.13-36.5809,5.3354-52.7912,15.0791-20.6868,12.4344-29.5837,31.1689-28.7987,54.9443.7406,22.43,11.5112,38.81,31.1882,48.6691,12.1332,6.0792,25.2863,10.1028,37.8993,15.2507,7.5039,3.0628,15.0849,6.0808,22.1861,9.9385,5.1923,2.8205,8.4106,7.8279,7.6255,14.129-.8023,6.4388-5.1767,10.6221-10.9777,12.444a93.8844,93.8844,0,0,1-20.3975,4.3455c-21.6162,1.728-41.3916-4.8032-60.284-14.6929a67.1329,67.1329,0,0,0-7.37-2.7528c0,3.1027.0085,5.0749-.0014,7.0471-.0547,10.9951.0632,21.9949-.2251,32.984-.2511,9.5745.95,11.6517,10.1434,14.23a191.796,191.796,0,0,0,74.6914,6.1955c18.7629-2.1915,36.5895-7.2209,52.0754-18.6065,32.3639-23.7949,34.4542-81.7693-9.5919-101.2438-11.8548-5.2414-24.146-9.4881-36.1567-14.3877a149.3844,149.3844,0,0,1-18.08-8.3077c-5.7948-3.3268-9.3649-8.5388-8.3909-15.7476.9539-7.0591,5.8969-10.4147,12.02-12.6393,9.6357-3.5009,19.5513-3.8343,29.5809-2.587A128.44,128.44,0,0,1,220.0632,1040.5272Zm177.9733,107.7191c-6.522,1.6659-12.0615,3.5284-17.7531,4.4463-13.9965,2.2573-23.7808-4.2549-27.2184-17.9736a54.8386,54.8386,0,0,1-1.7278-12.8153c-.18-25.9874-.1494-51.9764-.135-77.9647.0035-6.3134,1.7891-8.0131,8.05-7.9844,10.4928.0481,20.9855.1572,31.4783.1881,5.8064.017,7.3682-1.61,7.3654-7.4355q-.0079-16.7363-.0171-33.4723c-.0041-6-1.297-7.384-7.3314-7.3918q-15.488-.02-30.976.1476c-7.0342.0663-8.6025-1.37-8.5842-8.3092.0419-15.8248.1432-31.65.1623-47.4745.0077-6.48-1.6978-7.79-7.9033-6-16.4593,4.7472-32.874,9.65-49.3543,14.3218-4.7457,1.3455-6.8576,4.052-6.743,8.9981.2352,10.156.28,20.3179.2844,30.4773.0029,6.4644-2.121,8.3721-8.46,8.1591q-9.2244-.31-18.4543-.449c-3.9047-.0572-7.1705,1.1627-7.1384,5.7341.0829,11.8178.3681,23.6348.6664,35.45.0983,3.8955,2.2765,6.2557,6.1569,6.5781,4.4725.3719,8.97.5614,13.4585.5974,13.0471.1049,13.464.55,13.5686,13.4221.26,31.98.1372,63.9739,1.0676,95.936.638,21.9227,9.5289,39.6011,30.5054,49.4027,24.6032,11.4964,49.5424,9.3347,74.4966,1.5612,1.9242-.6,4.2814-3.7522,4.3363-5.7751C398.216,1176.6619,398.0365,1162.6878,398.0365,1148.2463Zm38.0676-195.3124c0,.5089.0279-.0705-.0041-.6465q-2.7126-48.88-5.4607-97.7582c-.6535-11.2867-1.0864-22.6254-2.5763-33.813a59.9312,59.9312,0,0,0-11.1262-28.1193L359.9082,892c15.2,6.0446,29.7775,14.215,41.9954,25.6761C413.9555,928.9811,424.9811,941.3807,436.1041,952.9339ZM1050.786,570.432Q943.66,743.8161,836.9319,916.5562l.9643.6228,233.3363-334.1543Zm241.5386-235.7974L962.9806,479.3434l.3553.8449,314.0041-118.53c7.9831,40.0584,15.8356,79.4609,23.688,118.8633l.7677-.1545C1298.6546,432.0336,1295.5133,383.7,1292.3246,334.6346ZM200.9672,830.5181l65.53,87.74c17-13.4786,36.6917-20.629,57.6213-26.7889-6.7032-6.027-12.534-11.4742-18.582-16.6688-17.3519-14.9031-36.2618-26.9642-58.8526-32.4746C231.2481,838.5605,215.9106,834.3924,200.9672,830.5181Z"/><path d="M292.0571,232.094c.1491-34.8241,9.2725-64.901,22.4-93.9767,3.1468-6.97,6.7036-13.7531,9.9937-20.6595,1.5208-3.1925,3.5991-5.49,7.372-4.0233,3.7621,1.4628,3.7973,4.4945,2.6752,7.9073-3.6323,11.0478-7.8128,21.97-10.5625,33.239-3.2286,13.2315-5.6213,26.71-7.5951,40.196-4.3591,29.782,2.4057,57.4181,18.6267,82.44,13.8784,21.4081,19.4183,44.5842,20.4548,69.8456,2.2616,55.1212,7.7992,109.97,18.9523,164.0851,6.0729,29.4652,17.3948,56.9044,34.7345,81.6272,3.8029,5.4223,8.7265,10.0472,12.7842,15.3091,1.1313,1.4669,1.01,3.9,1.464,5.8892-2.0552-.1568-4.64.4368-6.0858-.5837-19.7483-13.942-33.9687-32.61-45.2744-53.7166-17.058-31.8456-26.4539-65.9007-29.8348-101.7817-2.5146-26.688-5.0461-53.3847-8.2738-79.9922-3.531-29.1061-15.3955-55.6166-27.0459-82.1409-7.0584-16.07-12.5-32.641-14.0821-50.251C292.2841,240.2052,292.1958,234.8686,292.0571,232.094Z"/><path d="M545.1505,459.3935l10.9788-9.66c-23.47-7.914-46.8723-9.428-71.7589-6.29,4.2609-6.4,9.6629-9.4389,15.9124-11.2768,10.7555-3.163,21.3854-1.3484,32.1355.4363,10.1344,1.6825,20.4016,3.2465,30.6376,3.4431,10.2641.197,12.67-4.0525,10.62-14.1091q-15.6516-76.8059-31.0872-153.6559c-.3763-1.8653-.5062-3.78-.751-5.6723l1.6826-.6187c2.2663,5.5289,5.2468,10.8788,6.6846,16.6155,10.5147,41.9524,20.7212,83.9819,31.021,125.9882,1.5451,6.3015,3.13,12.5942,4.5878,18.9159,2.1126,9.16.2276,15.3378-7.8361,20.2159-10.3168,6.2413-21.2036,11.54-31.8448,17.2454Z"/><path d="M440.4188,194.7847c4.3079,1.1535,8.9518,1.6323,12.8642,3.58,15.0673,7.5026,26.6372,18.6881,33.4584,34.2957.745,1.7046.2628,3.9455.35,5.9377-2.04-.5044-4.4805-.4627-6.0468-1.6125-5.3635-3.9372-10.5348-8.16-15.5726-12.5125-17.3746-15.0123-29.4971-16.521-51.497-4.2231-10.4538,5.8436-19.1589,14.79-28.7951,22.1487-1.583,1.2088-3.8857,1.4752-5.8557,2.1772.0478-2.1013-.618-4.5727.2509-6.2482,12.0528-23.2447,30.2458-38.4723,56.6952-42.6266,1.3123-.2062,2.6522-.236,3.9794-.3479Z"/><path d="M502.2646,549.6572c-9.6126-.1911-21.2462-4.8787-30.4494-15.2191-4.53-5.09-9.4465-9.841-13.8651-15.0209-1.18-1.3827-2.0856-4.1983-1.4486-5.5946.6386-1.4,3.5749-2.8548,5.1318-2.5254a63.2832,63.2832,0,0,1,14.0531,4.5346c3.85,1.8323,7.297,4.6308,10.6746,7.3139,9.543,7.5809,20.0766,8.9764,31.5176,5.5478,7.7948-2.3359,15.5413-4.8866,23.4459-6.767,2.0443-.4863,4.6023,1.1874,6.9244,1.8689-.892,2.2459-1.1971,5.1122-2.7889,6.6181a139.7719,139.7719,0,0,1-13.9072,11.3336C524.0684,547.1913,515.5465,549.7085,502.2646,549.6572Z"/><path d="M526.0023,520.3167c-3.1081-.8726-5.4666-1.6349-7.873-2.19-5.2543-1.2118-10.488-2.6524-15.815-3.3659-4.5859-.6142-9.4764.414-13.8932-.668a60.542,60.542,0,0,1-15.8692-6.4317c-4.3762-2.55-8.1339-6.2838-11.8009-9.8674-1.4422-1.4094-1.8974-3.829-2.8019-5.7886,2.055-.4083,4.3133-1.565,6.124-1.0733a54.0405,54.0405,0,0,1,11.9729,4.7392,26.6116,26.6116,0,0,0,16.7971,3.1992c11.2745-1.4152,22.501-2.7073,32.906,3.9458,1.2965.829,3.7691-.2007,5.6989-.3393,4.9142-.3532,9.8753-1.2054,14.7219-.7761,1.9132.1694,3.5723,3.2092,5.3472,4.942-1.5641,1.4755-2.93,3.2874-4.7355,4.3541a103.2683,103.2683,0,0,1-10.6368,5.3235C532.706,517.848,529.1414,519.0922,526.0023,520.3167Z"/><path d="M401.7767,269.6474c4.1471-2.8505,8.0536-6.1658,12.4881-8.4609,11.5549-5.98,23.8416-8.7741,36.6209-4.8429a40.16,40.16,0,0,1,12.8624,7.2256c4.8194,3.8715,4.7355,8.6739.2188,12.86-6.7251,6.2327-14.9943,9.0862-24.0444,9.6114-5.1583.2992-7.1223-3.3427-8.5709-7.5284-3.4848-10.0695-3.51-10.0078-14.1368-8.194-4.089.6979-8.2216,1.1572-12.3473,1.6071a6.5463,6.5463,0,0,1-2.2931-.6553Z"/><path d="M594.8231,265.5788c2.5826,2.0724,5.8785,3.5053,7.1123,5.9706,2.2669,4.53,3.489,9.6238,4.7616,14.5815.3268,1.2725-.372,3.5564-1.36,4.1894-.8384.5373-3.2325-.1952-4.1337-1.1362-2.4894-2.6-4.1189-2.2622-6.5047.2789-5.4969,5.8547-12.8409,5.84-17.3845.3377-4.6934-5.684-3.6947-14.464,2.7631-18.3337C584.2339,268.9764,589.1631,267.7757,594.8231,265.5788Z"/><path d="M585.4739,1095.2866c-.9232,6.7808-1.3937,14.4835-3.0867,21.9075-6.1053,26.7725-24.12,38.97-51.37,35.6612-19.3823-2.3532-31.4812-12.773-36.94-31.4579-5.8332-19.9662-5.8439-39.7593,1.1937-59.374,6.033-16.8144,17.7631-27.2882,35.7246-29.3724,16.8277-1.9527,32.3142,1.1063,43.5147,15.4487,5.6919,7.2887,8.4588,15.8317,9.4711,24.8773C584.7764,1080.0829,584.9613,1087.2571,585.4739,1095.2866Z"/></g></g></svg>