<svg xmlns="http://www.w3.org/2000/svg" fill= "#fff" width="601.1134" height="600.2139" viewBox="0 0 601.1134 600.2139"><g id="Calque_2" data-name="Calque 2"><g id="Calque_1-2" data-name="Calque 1"><path d="M0,369.6238c6.8178-.2378,13.6586-.92,20.4457-.5671,5.0647.2634,7.0694-1.751,8.7427-6.2133q36.9789-98.61,74.4-197.0533c1.4161-3.72,4.1954-7.8957,7.5151-9.713,6.8434-3.7462,13.5375.12,16.7448,8.6066q21.3645,56.5293,42.6527,113.0875c10.835,28.7294,21.7521,57.4282,32.4284,86.2164,1.3826,3.7281,3.1068,5.2244,7.1556,5.0173,6.7909-.3475,13.6125-.0951,21.2206-.0951a103.4287,103.4287,0,0,1-17.83,33.5142c-28.4443,35.9156-65.7778,52.9842-111.302,47.759-47.4654-5.448-80.4979-31.9309-99.9095-75.495A40.191,40.191,0,0,0,0,370.8ZM115.8243,198.46c-21.6885,57.4924-42.849,113.5851-64.099,169.9149H179.9358C158.5747,311.7615,137.4613,255.8046,115.8243,198.46Z"/><path d="M231.8865,554.31c1.1763-12.8427,4.4508-24.3692,11.3294-34.7592,7.451-11.2549,17.1194-19.8692,29.5275-25.1334,3.7875-1.6069,5.2364-3.4988,5.23-7.7465q-.2-130.5477-.0231-261.0958a9.42,9.42,0,0,0-4.0454-8.31c-10.4709-8.3891-15.8563-19.4421-16.2211-33.2444h86.9c-.4041,13.8777-5.8138,24.96-16.334,33.3184-2.9871,2.3733-3.9407,4.7244-3.9371,8.3592q.1286,130.2539.0257,260.5079c-.0021,3.5171.2825,6.0213,4.2215,7.8041,23.8069,10.7743,37.6314,29.1744,41.0738,55.2082.2041,1.5432.61,3.06,1.02,5.0669q20.905,0,41.7117.0018c19.007.0122,27.6436,8.6246,27.6634,27.5739.0063,6.0209.001,12.0419.001,18.3525H161.8985c.4233-9.6708-.1531-19.5083,1.5345-28.9408,1.8958-10.5959,11.1918-16.8236,22.5019-16.9283C201.0111,554.2052,216.09,554.31,231.8865,554.31Z"/><path d="M371.4541,368.9106c6.2038,0,12.25-.4705,18.1864.1327,5.9042.6,8.4449-1.5482,10.51-7.0786,24.5029-65.614,49.3176-131.1115,73.9645-196.6718,2.073-5.5141,4.81-9.84,11.3022-10.3468,6.3358-.4941,10.2922,2.4677,13.1814,10.1181q19.4919,51.6135,38.9452,103.2414c11.9454,31.6682,24.0047,63.2944,35.7167,95.0486,1.6776,4.5484,3.9163,5.9325,8.5109,5.6541,6.4087-.3884,12.8584-.0979,19.3418-.0979-4.3561,37.5727-60.28,79.6023-106.5945,82.1168C427.2726,454.678,382.2912,406.747,371.4541,368.9106ZM486.4213,198.464l-64.14,170.0488H550.5876C529.2005,311.8342,508.026,255.7189,486.4213,198.464Z"/><path d="M269.7629,85.2853l17.2027-11.364c-1.9727-1.8579-4.3408-3.75-6.3029-5.9972-6.93-7.9353-9.3344-17.249-4.5361-26.6814C283.2744,27.1916,291.5592,13.7188,299.36,0l2.4105.1177c6.0436,9.2333,12.1161,18.4479,18.1075,27.715a70.2838,70.2838,0,0,1,3.3534,6.1957c8.6836,16.9531,6.61,27.2686-8.05,39.8105l17.68,11.7371a71.6781,71.6781,0,0,1,32.3013-15.93c19.6584-3.8883,38.6865-1.134,56.9129,6.5339,14.5952,6.14,28.8311,13.1448,43.1358,19.9561,2.9749,1.4165,4.9069,1.4382,7.7576-.7177a22.4424,22.4424,0,0,1,28.68,1.1374,23.2606,23.2606,0,0,1-20.84,40.1742c-6.6915-1.66-11.2067-5.9811-14.5785-11.85-1.0927-1.9019-2.6421-4.0167-4.5186-4.9178-15.3409-7.3661-30.6379-14.8688-46.2861-21.5371-15.5551-6.6287-31.8581-10.3812-48.6188-5.11-6.3968,2.0117-12.3545,5.7269-18.14,9.2726-4.2288,2.5913-5.89,6.2634-5.9013,12.0992A41.2164,41.2164,0,0,1,300.01,155.9132c-24.3385-1.0059-41.7734-20.2665-40.67-44.6235a8.7279,8.7279,0,0,0-2.6351-5.88c-14.6454-13.9-32.3311-17.2683-51.26-12.592-11.2988,2.7913-22.1976,7.4665-32.9848,11.99-10.6339,4.4589-20.9606,9.6739-31.2773,14.8462a12.8383,12.8383,0,0,0-5.0809,5.1482c-6.6,12.1228-20.4259,16.29-32.0981,9.439a23.3892,23.3892,0,0,1-8.0517-32.25c6.9948-11.3728,21.9086-14.8306,32.7226-6.9578,3.5044,2.5513,5.7958,2.2768,9.3127.676,17.2545-7.8539,34.2487-16.5322,52.0795-22.8019,21.28-7.4824,43.1393-7.6017,64.0092,2.6767C259.6556,78.3313,264.7179,82.129,269.7629,85.2853Z"/></g></g></svg>