<svg xmlns="http://www.w3.org/2000/svg" fill="#fff" width="392.113" height="302.7488" viewBox="0 0 392.113 302.7488"><g id="Calque_2" data-name="Calque 2"><g id="Calque_1-2" data-name="Calque 1"><polygon points="343.186 49.506 343.186 0 313.078 0 313.078 44.279 313.078 49.795 264.151 49.795 264.151 78.167 313.367 78.167 313.367 127.673 343.476 127.673 343.476 95.119 343.476 77.877 392.113 77.877 392.113 49.506 343.186 49.506"/><path d="M355.476,125.0154v2.6575a12,12,0,0,1-12,12H313.367a12,12,0,0,1-12-12V90.1672H264.1511a12,12,0,0,1-12-12V49.7948a12,12,0,0,1,12-12H297.754a317.64,317.64,0,0,0-56.14-15.8746c-2.7558-.5205-4.1358.0461-5.2694,2.6112-2.1374,4.8363-4.7293,9.4719-6.8706,14.3067-.8435,1.9043-1.7806,2.5-3.8116,2.1922a237.5775,237.5775,0,0,0-44.5545-2.7358c-11.4727.4318-22.9227,1.61-34.3618,2.68-2.3973.2242-3.4979-.2512-4.4939-2.5044-2.2182-5.0178-4.8647-9.8451-7.2628-14.7858-.7922-1.6323-1.631-2.2584-3.6746-1.8938A307.2493,307.2493,0,0,0,58.5113,44.3509a7.2256,7.2256,0,0,0-2.803,2.5187C31.4326,83.1254,13.9663,122.2685,5.7048,165.2753A285.8961,285.8961,0,0,0,.48,213.7991,14.9867,14.9867,0,0,1,0,216.3339v13.2022c.1851,1.8465.42,3.6894.5458,5.54.4044,5.9675.8556,11.9343,1.0971,17.909a4.8169,4.8169,0,0,0,2.2921,4.138,311.153,311.153,0,0,0,75.8605,40.2186q7.5349,2.72,15.0824,5.4072h1.201Q105.196,288.167,114.3,273.5773a33.371,33.371,0,0,0,1.5038-3.0011l-31.6711-15.08c2.8133-2.21,4.8653-4.0516,7.1677-5.4943.7245-.4539,2.2336-.092,3.1937.3291A232.5469,232.5469,0,0,0,148.4965,266.82q64.2081,11.0763,124.061-14.6482c6.2859-2.71,10.2919-2.0977,14.7061,3.5247l-31.717,15.1477c5.194,8.3877,10.4671,16.938,15.782,25.4623,1.3651,2.1894,2.8615,4.2969,4.2976,6.442h1.2009c5.5215-1.971,11.0524-3.9159,16.5627-5.9172a310.6276,310.6276,0,0,0,74.6577-39.7278c1.8787-1.3418,2.1685-2.9433,2.3226-4.8217a331.8889,331.8889,0,0,0,.6026-49.7221A302.8922,302.8922,0,0,0,355.476,125.0154ZM145.1409,204.854c-12.8855,11.6787-32.0058,10.7095-43.8174-2.1585a39.9541,39.9541,0,0,1,.3262-53.9583c15.5358-16.4683,41.8958-11.59,52.107,9.6323a41.2644,41.2644,0,0,1,3.8637,18.5589C157.3239,187.3218,153.6375,197.1533,145.1409,204.854Zm126.889-3.7382c-12.7751,15.4064-34.2236,15.95-47.7379,1.21-15.5087-16.9152-12.5065-45.5745,6.0917-58.0977,5.1917-3.4958,10.9209-5.2777,18.4162-5.3573,11.0723.4387,20.26,6.2,26.6089,16.5187C283.9694,169.3022,282.4673,188.5287,272.03,201.1158Z"/></g></g></svg>