<?xml version="1.0" encoding="UTF-8"?><svg id="Calque_2" fill="#fff" xmlns="http://www.w3.org/2000/svg" viewBox="0 0 306.37 601.59"><g id="Calque_1-2"><path d="M268.58,601.59c-20.34-.85-39.78-1.7-59.23-2.45-19.46-.76-38.92-1.52-58.38-2.08-11.06-.32-15-3.12-15.91-14.03-.74-8.92-.46-17.95-.13-26.91,.61-16.34,.8-32.64-3.54-48.57-1.43-5.26-3.63-10.33-5.57-15.45-7.33-19.39-8.21-38.22,4.37-56.1,1.25-1.78,1.78-4.33,1.92-6.57,.46-7.14,.82-14.3,.66-21.44-.04-1.88-1.69-4.55-3.33-5.33-1.67-.79-4.89-.45-6.26,.74-2.42,2.1-4.29,5.05-5.79,7.95-14.24,27.62-28.36,55.31-42.5,82.99-3.17,6.21-6.58,12.31-9.38,18.68-3.74,8.5-3.79,17.41,.41,25.62,3.82,7.47,8.53,14.55,13.45,21.37,3.03,4.2,7.82,5.41,13.18,5.81,8.05,.6,16.25,1.6,23.92,3.95,8.46,2.59,12.12,9.29,11.31,17.5-10.21-.98-20.42-1.96-30.64-2.95-15.57-1.5-31.13-3.28-46.73-4.33-4.65-.31-9.52,1.1-14.15,2.27-6.59,1.67-13,4.09-19.59,5.76-5.96,1.5-11.35,.13-14.94-5.29-3.28-4.94-1.51-9.66,1.55-13.89,15.77-21.82,21.8-46.55,22.95-73.05,.7-16.1,1.95-32.26,4.4-48.17,1.65-10.71,9.55-18.27,17.86-24.98,3.73-3.01,7.21-6.35,10.61-9.73,1.93-1.92,1.82-4-.35-6.02-15.27-14.17-22.56-31.96-24.37-52.5-.65-7.41-2.79-14.68-4.13-22.04-1.39-7.64-5.5-13.67-10.44-19.49-13.54-15.94-18.86-34.45-14.13-54.87,1.83-7.88,5.35-16.1,10.34-22.38,20.22-25.39,33.86-54.04,43.87-84.54,7.58-23.09,22.32-40.72,39.43-57.26,17.88-17.28,37.22-31.98,59.79-42.65,7.2-3.41,13.51-8.97,19.69-14.19,10.29-8.7,20.3-17.75,30.12-26.97,7.9-7.42,17.64-8.31,27.66-9.52,19.49-2.36,36.35,4.1,52.32,14.15,9.85,6.2,10.69,8.87,6.79,19.62-.22,.61-.32,1.26-.63,2.53,1.74,.55,3.59,.75,4.98,1.67,1.93,1.28,4.75,2.96,4.93,4.7,.25,2.36-1.03,5.59-2.78,7.27-2.3,2.21-5.64,3.43-8.66,4.79-3.36,1.52-3.81,3.35-1.26,5.99,3.24,3.35,6.38,6.79,9.69,10.07,4.04,4.01,4.94,8.75,4.1,14.2-2.67,17.35-6.43,20.68-23.98,20.88-6.39,.07-12.16-.5-17.42-5.45-4.7-4.42-11.69-4.44-17.6-2.48-8.77,2.92-17.38,6.54-25.64,10.7-6.38,3.21-9.16,8.97-9.08,16.5,.06,6.42-.75,12.96-2.1,19.25-1.9,8.86-5.19,10.81-14.04,9.48-4.05-.61-6.24,1.52-6.79,4.92-1.22,7.53-1.95,15.14-2.82,22.72-.19,1.65-.35,3.36-.13,4.98,1.21,8.87-1.35,16.75-6.35,23.91-1.9,2.72-1.28,4.66,.52,7.05,12.89,17.15,29.3,30.22,47.07,41.97,9.11,6.02,17.98,12.67,25.81,20.23,4.26,4.12,7.11,10.44,8.79,16.29,2.15,7.47-1.5,14.45-8.62,17.8-6.57,3.1-13.55,5.51-20.56,7.44-5.48,1.51-10.72-.59-13.07-5.81-2.48-5.49-4.53-11.49-5.12-17.43-.66-6.62-3.34-11.02-9.11-13.67-6.94-3.18-13.94-6.27-21.02-9.12-10.13-4.08-20.97-6.76-28.6-15.79-8.2,28.15-3.41,63.96,11.43,87.61,.7,1.11,1.01,2.45,1.69,3.57,3.67,6.04,6.73,12.61,11.27,17.92,5.11,5.98,9.06,12.28,8.73,20.04-.79,18.58-1.82,37.17-3.57,55.69-1.92,20.36-5.57,40.57-6.96,60.95-1.3,19.06,4.39,36.81,15.16,52.72,1.37,2.03,3.11,4.19,5.2,5.3,13.16,7.04,26.35,14.06,39.82,20.47,3.17,1.51,7.45,.83,11.23,.9,2.82,.05,5.64-.43,8.46-.45,4.18-.03,6.98,1.91,7.84,6.16,.69,3.4,1.32,6.82,2.09,10.86Z"/></g></svg>