<?xml version="1.0" encoding="UTF-8"?><svg id="Calque_2" fill="#fff" xmlns="http://www.w3.org/2000/svg" viewBox="0 0 301.26 631.54"><g id="Calque_1-2"><path d="M301.26,631.43c-13.74,0-26.53-.09-39.32,.03-12.31,.11-24.57,.55-36.67-2.75-12.9-3.52-25.75-.6-38.61,1.03-13.7,1.74-18.96-3.27-16.89-16.94,.95-6.23,3.09-12.88,6.64-17.99,6.91-9.95,8.95-20.82,9.88-32.42,1.01-12.52-1.77-23.98-7.34-35.11-8.36-16.7-10.46-34.36-5.45-52.35,1.53-5.48,5.59-10.3,8.78-15.24,1.7-2.63,4.29-4.67,5.99-7.3,3.97-6.15,3.73-12.69-1.56-17.78-6.9-6.63-14.5-12.53-22.92-19.7-.86,9.05-1.55,16.38-2.24,23.71-.13,1.32-.33,2.65-.35,3.98-.13,9.21-4.58,15.71-11.84,21.24-26.27,20.01-50.4,42.37-73.02,66.45-12.96,13.79-18.8,29.8-18.89,48.37-.04,9.69,3.65,17.05,12.48,21.56,5.92,3.03,11.83,6.08,17.65,9.28,2.16,1.19,4.96,2.44,5.86,4.39,1.19,2.6,1.24,5.98,.85,8.89-.12,.93-3.22,2.05-4.96,2.07-10.13,.08-20.27,.12-30.39-.37-5.41-.26-9.53-3.36-12.54-8.03-2.96-4.61-6.18-9.08-9.52-13.42-5.9-7.67-13.8-11.78-23.45-12.58-1.99-.17-3.95-.61-5.94-.79-3.93-.36-5.88-2.8-6.73-6.33-1.59-6.66-.84-13.13,3.52-18.46,5.23-6.41,10.77-12.64,16.71-18.4,7.15-6.94,14.96-13.2,22.3-19.97,4.6-4.24,6.8-9.45,6.42-16.03-.95-16.26,5.98-28.91,18.76-38.67,8.46-6.46,16.86-13.01,25.13-19.71,2.69-2.18,5.09-4.8,7.32-7.47,5.63-6.77,6.24-14.2,1.8-21.75-2.86-4.86-6.77-9.15-9.28-14.16-2.32-4.61-3.99-9.72-4.89-14.8-1.45-8.16-1.3-16.65-3.23-24.67-1.52-6.3-4.03-13.01-8.06-17.93-9.11-11.12-12.53-23.62-12.41-37.49,.07-8.48,.25-16.97,.66-25.44,.38-7.89-2.21-14.53-6.95-20.76-15.86-20.84-23.01-44.89-23.63-70.65-.18-7.37,2.99-15.33,6.37-22.16,7.39-14.96,18.68-26.83,31.65-37.42,5.88-4.8,10.74-11.3,14.72-17.84,4.83-7.93,10.17-14.78,17.73-20.47,11.42-8.58,22.01-18.28,32.73-27.75,1.42-1.25,1.99-3.91,2.19-6,.85-8.9,.41-18.05,2.3-26.7,3.97-18.11,23.91-35.39,42.4-37.35,14.39-1.53,28.83-2.27,43.21,.92,10.93,2.42,17.57,8.61,19.96,19.63,.45,2.05,2.46,3.89,4.05,5.53,1.48,1.53,3.56,2.49,5.05,4.01,4.48,4.58,3.9,8.03-1.95,10.55-3.84,1.66-4.53,4.31-2.95,7.61,2.57,5.39,5.62,10.55,8.16,15.96,.82,1.74,.67,3.94,.96,5.93-1.88-.15-3.93,.11-5.62-.54-4.09-1.57-5.35-.33-5.34,3.89,.01,4.29-.35,8.64-1.11,12.86-1.08,5.98-4.74,9.91-10.93,10.73-8.24,1.09-16.51,1.95-24.78,2.75-11.05,1.07-22.38,11.53-23.54,22.43-.28,2.61,.68,5.59,1.8,8.07,2.17,4.84,4.92,9.43,7.31,14.17,4.33,8.57,3.96,16.96-1.18,25.12-3.63,5.77-7.31,11.51-10.77,17.39-11.11,18.89-8.51,32.82,8.14,47.06,20.14,17.22,43.03,26.47,69.81,26.24,7.86-.07,16.01,1.11,23.54,3.37,12.14,3.64,14.48,13.16,6.6,23.06-.73,.91-1.55,1.75-2.23,2.69-6.59,9.22-13.79,8.37-20.2-.26-4.9-6.6-10.18-8.33-17.54-6.68-2.27,.51-4.69,.43-6.88,1.12-17.45,5.53-33.84-.9-50.48-4.37-7.65-1.59-15.24-3.47-22.83-5.32-3.19-.78-4.85,.16-4.75,3.55,.19,6.82,.2,13.65,.76,20.43,.18,2.13,1.58,4.39,2.97,6.16,4.52,5.75,9.08,11.51,14.02,16.89,12.69,13.81,23.44,28.85,31.43,45.91,6.9,14.74,14.25,29.28,21.66,43.78,6.36,12.46,7.32,25.04,3.6,38.61-5.81,21.14-11.65,42.36-15.63,63.88-3.13,16.93-3.7,34.35-4.86,51.59-.21,3.11,1.63,6.85,3.58,9.54,8.31,11.48,18.73,20.6,31.59,26.87,10.74,5.24,21.46,10.56,31.94,16.3,4.29,2.35,8.15,5.7,9.68,12.67Z"/></g></svg>