<?xml version="1.0" encoding="UTF-8"?><svg id="Calque_2" fill="#fff" xmlns="http://www.w3.org/2000/svg" viewBox="0 0 251.28 723.84"><g id="Calque_1-2"><path d="M96.13,0c3.34,.93,6.72,1.77,10.03,2.81,9.48,2.99,17.4,7.93,22.7,16.8,2.27,3.79,5.82,6.8,8.68,10.25,2.37,2.85,4.54,5.53-.47,8.41-1.11,.64-1.4,4.75-.52,6.46,3.03,5.9,6.87,11.37,10.13,17.16,1.37,2.43,2.09,5.23,3.57,9.06-3.51-1.09-5.46-1.69-8.11-2.51,0,2.38-.38,4.38,.07,6.17,1.54,6.21-.9,11.66-2.84,17.25-1.5,4.34-4.92,5.65-8.97,5.79-4.8,.16-9.61,.04-15.85,.04,.68,11.21,1.03,22.42,2.2,33.54,.53,5.04,2.32,10.07,4.21,14.83,5.58,14.07,5.19,28.45,3.8,43.18-1.49,15.88-1.83,31.87-2.74,47.81-.27,4.71,1.14,8.57,4.07,12.39,12.57,16.35,24.66,33.08,37.33,49.36,8.66,11.13,18.64,21.17,25.37,33.86,2.56,4.83,7.71,8.22,11.25,12.62,2.35,2.91,4.72,6.22,5.68,9.73,1.72,6.26-2.04,12.34-7.83,14.35-8.37,2.91-15.39,1.38-18.12-5.25-4.01-9.76-9.66-17.57-17.82-24.59-8.73-7.51-15.31-17.48-23.12-26.11-3.61-4-7.91-7.37-12.7-11.76,0,4.98-.28,8.73,.06,12.41,.89,9.6,1.91,19.2,3.19,28.76,.32,2.36,1.6,4.68,2.79,6.82,10.6,19.11,21.13,38.56,24.24,60.3,4.8,33.52,11.68,66.81,11.6,100.98-.1,45.26,.77,90.52,1.4,135.78,.05,3.52,.86,7.34,2.44,10.45,3.84,7.53,8,14.95,12.64,22.01,9.07,13.78,21.6,21.72,38.63,21.9,5.45,.06,10.94,1,16.32,2.05,10.49,2.05,14.43,10.05,10.06,20.73-7.94-5.16-16.9-3.62-25.61-3.8-28.13-.6-56.26-1.06-84.4-1.59-1.81-.03-3.62-.15-5.83-.25-.12-1.71-.31-3.15-.32-4.58-.03-8.49-.36-16.99,.05-25.46,1.59-33.44-5.74-65.38-15.83-96.9-2.12-6.63-3.99-13.37-5.53-20.16-2.43-10.78-1.43-21.44,4.48-30.84,7.15-11.39,6.6-22.24-.3-33.19-5.37-8.51-10.95-16.89-16.96-26.14-1.22,2.14-1.72,2.79-1.98,3.51-13.39,37.55-27,75.03-39.95,112.73-2.65,7.72-3.68,16.25-3.99,24.46-.49,12.78,.03,25.62,.55,38.41,.72,17.72,8.32,25.31,26.07,27.05,5.78,.57,11.59,1.31,17.26,2.55,9.45,2.06,10.71,3.93,10.69,13.6,0,1.64,0,3.28,0,5.25-1.61,.14-2.87,.38-4.13,.34-30.79-.91-61.58-1.79-92.36-2.9-1.61-.06-3.9-1.72-4.58-3.22-3.85-8.43-5.4-17.38-1.78-26.14,7.56-18.31,8.44-37.37,8.22-56.8-.23-20.63,.38-41.26,.81-61.89,.04-2.15,.97-4.49,2.12-6.36,3.65-5.95,7.48-11.8,11.45-17.55,9.81-14.21,14.88-29.87,15.41-47.16,.88-28.77,2.02-57.53,3.13-86.29,.11-2.8-.62-4.4-3.33-5.77-9.27-4.67-13.93-12.09-13.83-22.85,.13-14.8-.43-29.61-.89-44.42-.07-2.19-.85-4.58-1.95-6.49-12.21-21.22-20.63-43.82-25.41-67.84-1.78-8.96-.25-17.51,1.88-26.11,4.17-16.77,10.12-33.34,11.99-50.36,2.08-18.97,10.37-34.38,20.37-49.57,2.47-3.75,5.09-7.41,7.31-11.31,3.63-6.35,8.01-11.39,15.13-14.46,4.44-1.92,7.79-6.37,11.78-9.81-4.06-4.84-7.68-8.71-10.78-12.95-8.67-11.83-14.58-24.78-12.91-39.85C47.56,20.68,61.31,6.38,80.87,1.09c1.11-.3,2.18-.72,3.27-1.09,4,0,7.99,0,11.99,0Z"/></g></svg>