<?xml version="1.0" encoding="UTF-8"?>
<svg id="Calque_2" data-name="Calque 2" xmlns="http://www.w3.org/2000/svg" viewBox="0 0 347.44 88.62">
  <defs>
    <style>
      .cls-1 {
        fill: #fff;
      }
    </style>
  </defs>
  <g id="Calque_1-2" data-name="Calque 1">
    <path class="cls-1" d="M59.53,5.32h29.81c-2.59,3.75-5.74,6.65-6.71,10.15-1.1,4-.26,8.53-.26,13.8,6.08-15.58,16.93-23.57,33.4-24.21V23.64c-10.79,.93-16.61,6.97-18.35,16.99-5.19,.56-10.18,1.09-15.15,1.74-.1,.01-.01,1.48-.01,2.72h15.06c1.74,8.18,5.83,13.65,14.05,15.4,1.02,.22,2.4,1.9,2.46,2.97,.27,4.78,.12,9.59,.12,14.42-14.04-1.07-22.5-7.36-31.92-24.09,0,4.17-.24,7.16,.06,10.1,.34,3.23,.64,6.66,1.96,9.54,1.11,2.43,3.66,4.21,5.57,6.27-.34,.4-.67,.79-1.01,1.19h-31.83c2.94-4.38,5.4-8.06,7.87-11.73-19.44,13.77-41.9,15.44-63.78,19.46-1.36-3.19-1.39-4.89,2-6.07,4.91-1.7,6.93-5.59,7.07-10.85,.44-16.49,1.13-32.98,1.72-49.47,.05-1.33,.08-2.67,.06-4-.14-7.81-2.45-10.64-10.39-12.79-.09-3.08,1.22-4.39,4.47-4.44,10.59-.16,21.27-1.62,31.76-.72,21.11,1.82,24.71,17.59,17.15,33.4-.48,1.01-1.16,1.93-1.39,2.31,3.93,3.64,7.63,7.07,11.8,10.94,0-10.04,.21-20.23-.18-30.4-.08-2.01-2.51-3.93-3.86-5.89-.94-1.37-1.9-2.74-2.85-4.11,.43-.41,.87-.81,1.3-1.22Zm-29.44,61.47c10.35-1.82,15.94-6.98,14.51-13.18-1.49-6.44-6.12-8.24-14.51-5.7v18.88Zm-.26-30.23c2.3-.92,3.85-1.43,5.29-2.15,3.57-1.78,4.92-5,4.53-8.68-.44-4.06-2.54-7.16-6.84-8.22-2.41-.59-3.94-.12-3.78,2.81,.29,5.14,.51,10.27,.81,16.25Z"/>
    <path class="cls-1" d="M219.7,1.99c7.29,.4,13.92,.65,20.52,1.26,1.01,.09,2.13,1.77,2.73,2.96,3.5,6.92,6.85,13.91,10.69,21.74,3.33-7.76,6.25-14.75,9.37-21.65,.58-1.27,1.98-3.04,3.05-3.07,8.46-.25,16.93-.14,25.91-.14-.38,1.08-.82,2.5-1.37,3.89-1.21,3.09-3.29,6.09-3.55,9.25-1.21,14.59-2.18,29.22-2.63,43.85-.12,3.97,1.87,8.01,2.87,12.02,.3,1.2,.54,2.41,.77,3.43h-26.79c.92-2.32,1.36-3.7,1.99-5,1.31-2.7,3.66-5.27,3.9-8.04,.89-10.44,1.11-20.93,.84-31.88-4.63,7.77-9.27,15.55-14.19,23.8-4.27-5.81-8.21-11.19-12.16-16.56,.3,12.4-5.05,25.08,4.04,36.93h-25.58c0-1.04-.47-2.66,.07-3.14,4.38-3.88,3.62-8.98,3.72-13.93,.26-12.83,.59-25.66,.86-38.49,.1-4.66,.43-9.35-4.17-12.61-.8-.57-.55-2.62-.9-4.63Z"/>
    <path class="cls-1" d="M194.89,14.99v11.53c-1.78-.88-3.53-1.15-4.05-2.1-3.93-7.13-4.15-7.31-13.96-6.21-.3,14.69-.83,29.46-.67,44.23,.03,2.63,2.87,5.26,4.51,7.82,.85,1.32,1.92,2.5,3.63,4.69-11.22,.91-20.95,1.72-30.7,2.42-.8,.06-2.25-.52-2.34-1.01-.18-.94,.06-2.55,.71-2.97,4.63-3,4.81-7.53,4.89-12.33,.22-12.16,.63-24.31,.96-36.46,.04-1.64,0-3.28,0-5.19-4.8,.25-9.44-.29-13.57,.92-3.81,1.12-7.07,4.12-11.19,6.67V4.91h59.33c3.22,1.45,5.09,2.84,7.12,3.1,7.23,.94,14.51,1.49,23.6,2.36-1.87,2.51-3.14,4.13-4.31,5.82-1.61,2.34-4.24,4.62-4.53,7.15-1.71,14.85-3.03,29.75-4.03,44.67-.15,2.18,2.1,4.55,3.33,6.79,.81,1.48,1.78,2.89,3.38,5.46-11.02-1-20.36-1.85-30.83-2.8,1.21-1.95,1.68-3.76,2.75-4.24,4.09-1.85,5.38-5.27,5.74-9.21,1.32-14.4,2.63-28.8,3.68-43.21,.15-2.01-1.2-4.13-1.85-6.19-.54,.13-1.08,.27-1.62,.4Z"/>
    <path class="cls-1" d="M347.44,87.62c-18.35-1.91-35.99-3.71-53.62-5.64-1.26-.14-3.4-1.17-3.42-1.83-.03-1.39,1.03-2.82,1.73-4.19,1.23-2.42,3.44-4.74,3.64-7.23,1.01-12.43,1.49-24.91,2.17-37.37,.32-5.81,1.11-11.65,.8-17.43-.17-3.17-2.19-6.24-3.35-9.36-.36-.98-1.13-2.18-.83-2.93,.3-.75,1.69-1.48,2.61-1.49,14.79-.09,29.59-.06,44.91-.06,.51,9.42,.95,17.47,1.41,25.85h-4.86c-2.23-10.82-6.87-13.28-21.39-11.23-.42,6.13-.85,12.35-1.29,18.81,4.83,.76,9.1,1.79,12.79-2.29,.96-1.06,3.09-1.05,5.68-1.83-.98,9.09-1.84,17.1-2.7,25.02-4.55,2.53-5.06-2.28-7.43-3.64-2.45-1.41-5.27-2.19-8.86-3.62v18.64c4.87,.43,10.02,1.48,15.04,1.06,2.55-.21,4.94-2.98,7.28-4.76,1.25-.95,2.25-2.23,3.37-3.37,.83,1.25,2.18,2.42,2.41,3.77,1.41,8.15,2.57,16.35,3.91,25.11Z"/>
    <path class="cls-1" d="M118.3,61.3c7.7-1.45,13.65-5.2,15.22-13.82,.11-.63,1.74-1.31,2.72-1.4,3.62-.32,7.27-.4,11.62-.6,0,5.2,0,10.29,0,15.38s0,9.92,0,16.22c-2.22-1.29-4.19-1.76-4.79-2.92-2.18-4.26-4.88-3.28-8.24-1.7-5.13,2.41-10.44,4.41-16.52,6.93v-18.08Z"/>
    <path class="cls-1" d="M148.07,42.61c-1.2,.43-2.39,1.18-3.61,1.22-6.13,.24-12.27,.25-18.41,.45-5.75,.18-7.69,2.08-8.12,7.72-.09,1.16,.03,2.36-.23,3.47-.16,.67-.87,1.21-1.33,1.81-.68-.56-1.76-1-1.97-1.7-1.23-4.16-2.41-8.34-3.3-12.58-.71-3.4,3.32-6.5,6.81-5.81,4.27,.84,8.59,1.5,12.92,1.87,4.79,.41,9.61,.33,14.41,.63,1,.06,1.94,.9,2.91,1.38-.03,.51-.06,1.03-.09,1.54Z"/>
  </g>
</svg>