<?xml version="1.0" encoding="UTF-8"?><svg id="Calque_2" fill="#fff" xmlns="http://www.w3.org/2000/svg" viewBox="0 0 387.41 369.65"><g id="Calque_1-2"><path d="M0,314.05c11.22-14.16,22.35-28.4,33.74-42.42,3.02-3.72,6.57-7.16,10.42-10.01,3.37-2.49,7.31-4.51,11.31-5.76,6.97-2.18,9.05-6.03,5.65-12.62-1.67-3.24-3.83-6.23-5.72-9.36-6.19-10.24-12.49-20.4-18.5-30.74-11.4-19.62-3.93-50.22,10.82-63.01,14.83-12.87,29.63-25.78,44.81-38.23,16.34-13.4,33.22-26.14,49.65-39.42,8.94-7.22,18.78-11.88,30.26-12.84,6.37-.53,11.1-3.52,15.22-8.38,11.01-12.99,22.73-25.31,37.86-33.65,20.23-11.15,40.69-9.12,60.85,.04,3.66,1.66,6.82,5.33,9.15,8.79,2.9,4.29,1.25,7.37-3.77,9.07-2.01,.68-4.04,1.28-7.08,2.23,2.32,2.09,3.84,3.75,5.63,5.02,6.79,4.81,13.77,9.34,20.48,14.26,5.71,4.19,6.47,6.95,2.32,12.53-4.56,6.14-6.58,12.54-6.93,20.19-.47,10.14-2.93,12.07-12.91,10.56-5.96-.9-11.73-3.38-17.43-5.57-6.15-2.36-8.43-1.32-7.89,5.11,1.77,21.19,3.62,42.39,5.97,63.52,1.31,11.78,9.47,20.22,17.26,27.96,8.18,8.12,17.76,14.95,27.24,21.62,12.35,8.69,25.9,15.8,37.66,25.19,12.87,10.28,21.72,24.21,28.07,39.48,1.45,3.49,2.29,7.29,2.99,11.02,1.11,5.92-1.12,10.72-5.66,14.58-2.79,2.38-5.86,2.89-8.62,.53-7.2-6.15-15.59-9.22-24.75-10.96-4.95-.94-7.32-4.99-9.7-9.26-5.32-9.54-10.66-19.17-17.08-27.97-5.9-8.08-11.48-10.37-18.33-10.06,0,1.05-.21,2.18,.03,3.2,2.67,11.14,5.15,22.35,8.27,33.36,1.38,4.89,3.9,9.5,6.26,14.06,8,15.44,13.91,31.58,17.25,48.68,.42,2.12,1.82,4.13,3.05,6,1.08,1.65,2.8,2.89,3.81,4.57,3.43,5.68,1.31,12.63-5.05,13.26-10.99,1.08-22.15,.94-33.21,.52-2.29-.09-5.31-3.24-6.46-5.7-1.54-3.29,1.09-5.79,3.92-7.68,2.2-1.47,4.59-2.94,6.16-4.98,.96-1.24,1.01-3.73,.47-5.32-.23-.68-3.03-.53-4.67-.63-.44-.03-.91,.36-1.37,.57-7.92,3.65-12.57,.5-11.95-8.37,.18-2.57,1.27-5.13,2.25-7.57,1.12-2.76,2.72-5.33,3.91-8.07,2.93-6.75,2.73-12.83-2.36-18.95-17.61-21.19-35.57-41.84-60.56-54.95-5.7-2.99-10.75-7.23-16.01-11.01-3.18-2.29-4.48-5.4-4.4-9.47,.22-10.48,.32-20.98-.08-31.44-.12-3.02-2.08-5.97-3.26-8.93-.17-.43-.65-.75-.99-1.11-11.52-12.04-16.02-13.35-31.15-6.72-8.62,3.78-16.92,8.51-24.8,13.67-6.33,4.14-6.4,6.48-2.42,12.88,3.24,5.22,6.86,10.22,10.33,15.29,3.19,4.67,6.24,9.45,9.65,13.95,12.48,16.49,15.26,34.47,11.01,54.67-3.58,17.02-4.77,34.54-7.13,51.82-.58,4.28,.94,6.63,5.01,8.29,11.54,4.69,22.93,9.74,34.36,14.7,5.04,2.19,9.92,1.93,14.96-.2,5.21-2.2,6.55-1.07,6.18,4.56-.32,4.84-2.94,7.83-8.82,8.43-11.42,1.17-22.88,2.33-34.34,2.56-17.46,.35-34.94,.23-52.39-.34-8.2-.27-9.27-1.73-9.41-10.22-.22-12.97,.21-25.95,.25-38.92,.04-15.31,3.56-29.96,8.02-44.48,3.7-12.05,2.63-14.68-8.1-21.33-5.48-3.4-11.14-6.5-16.85-9.8-1.21,6.21-2.24,11.9-3.44,17.57-1.44,6.82-5.12,12.1-10.95,16.03-13.39,9.01-26.68,18.15-40.01,27.26-1.51,1.03-2.98,2.13-4.42,3.25-8.02,6.21-8.98,9.89-5.06,19.28,3.15,7.53,8.9,12.8,15.47,17.19,5.8,3.88,11.97,7.22,17.79,11.06,2.75,1.81,5.1,4.25,7.62,6.41-.24,.5-.48,1-.72,1.5h-7.72c-12.99,0-25.98-.12-38.96,.08-3.47,.05-5.94-.8-8.12-3.56C22.64,346.24,11.3,332.16,0,318.05c0-1.33,0-2.66,0-3.99Z"/></g></svg>